<svg width="287" height="290" viewBox="0 0 287 290" fill="none" xmlns="http://www.w3.org/2000/svg">
<rect width="287" height="290" fill="#FDFDFD"/>
<path d="M116.045 58C123.482 64.1086 144.012 72.6607 166.641 58L186.56 63.9758C188.419 64.3742 193.094 68.0394 196.918 79.513C198.993 85.7357 204.95 102.552 211.726 121.344C217.444 137.2 223.745 154.464 228.789 167.955C230.875 173.533 237.952 191.46 239.148 195.046C241.007 200.623 244.327 218.152 237.952 218.152H235.96C236.492 222.269 237.873 230.104 237.554 230.104C237.418 230.104 235.593 230.441 233.172 230.9C231.479 231.221 229.495 231.601 227.594 231.967C225.829 232.307 224.135 232.636 222.814 232.893L218.83 221.339C214.686 222.295 211.526 217.223 210.464 214.567L197.5 172C197 175.5 196.5 179 195.5 181.899L193.399 192.655H187.988H182.576H176.202H169.828H163.055H156.283H149.112H143.136H134.77H128.794H122.42H116.045H109.671H103.297H96.9228H90.5485L88 181.899C87 179.5 86.5 178 86 174L72.2227 214.567C71.1603 217.223 67.9997 222.295 63.8565 221.339L59.8726 232.893C58.5507 232.636 56.8572 232.307 55.0919 231.967C53.1912 231.601 51.2073 231.221 49.5145 230.9C47.0936 230.441 45.2679 230.104 45.1322 230.104C44.8135 230.104 46.1946 222.269 46.7258 218.152H44.7338C38.3596 218.152 41.6795 200.623 43.5387 195.046C44.7338 191.46 51.8115 173.533 53.8968 167.955C58.941 154.464 65.2423 137.2 70.9603 121.344C77.7366 102.552 83.6936 85.7357 85.7679 79.513C89.5924 68.0394 94.2668 64.3742 96.126 63.9758L116.045 58Z" fill="#EBC8B4"/>
<path d="M116.045 58C114.054 63.843 115.886 81.6643 139.152 106.205C139.759 106.813 140.28 107.488 140.725 108.197M116.045 58C123.482 64.1086 144.012 72.6607 166.641 58M116.045 58L96.126 63.9758C94.2668 64.3742 89.5924 68.0394 85.7679 79.513C83.6936 85.7357 77.7366 102.552 70.9603 121.344M140.725 108.197C142.614 111.21 143.136 114.843 143.136 116.563V153.613V164.37V181.899M140.725 108.197C151.09 98.1045 170.784 73.9355 166.641 58M166.641 58L186.56 63.9758C188.419 64.3742 193.094 68.0394 196.918 79.513C198.993 85.7357 204.95 102.552 211.726 121.344M175.405 61.9839C175.223 67.0003 173.337 77.0409 167.836 87.1747C166.993 88.7269 166.066 90.2812 165.047 91.82M157.876 100.628C159.311 99.1928 160.637 97.7055 161.86 96.1845M188.552 102.221C191.5 121.344 195 144 195 144C195 144 197.5 166.024 197.5 172M197.5 172L210.464 214.567C211.526 217.223 214.686 222.295 218.83 221.339M197.5 172C197 175.5 196.5 179 195.5 181.899M218.83 221.339L222.814 232.893C224.135 232.636 225.829 232.307 227.594 231.967M218.83 221.339C220.919 220.857 222.619 220.375 224.009 219.945M235.96 218.152C236.492 222.269 237.873 230.104 237.554 230.104C237.418 230.104 235.593 230.441 233.172 230.9M235.96 218.152H237.952C244.327 218.152 241.007 200.623 239.148 195.046C237.952 191.46 230.875 173.533 228.789 167.955C223.745 154.464 217.444 137.2 211.726 121.344M235.96 218.152C235.96 218.152 233.397 218.152 231.18 218.264M231.18 218.264C230.012 218.323 228.941 218.413 228.391 218.551C227.44 218.788 226.064 219.31 224.009 219.945M231.18 218.264L233.172 230.9M233.172 230.9C231.479 231.221 229.495 231.601 227.594 231.967M224.009 219.945L227.594 231.967M211.726 121.344C212.111 126.257 210.167 137.279 199.309 142.06M107.281 61.9839C107.546 69.2877 108.635 85.6482 122.021 99.034M88 181.899C87 179.5 86.5 178 86 174M88 181.899L90.5485 192.655H96.9228M88 181.899H96.9228M94 102.221C90.5485 121.344 88 144.052 88 144.052C88 144.052 86 165.708 86 174M86 174L72.2227 214.567C71.1603 217.223 67.9997 222.295 63.8565 221.339M63.8565 221.339L59.8726 232.893C58.5507 232.636 56.8572 232.307 55.0919 231.967M63.8565 221.339C61.7673 220.857 60.0671 220.375 58.6774 219.945M46.7258 218.152C46.1946 222.269 44.8135 230.104 45.1322 230.104C45.2679 230.104 47.0936 230.441 49.5145 230.9M46.7258 218.152H44.7338C38.3596 218.152 41.6795 200.623 43.5387 195.046C44.7338 191.46 51.8115 173.533 53.8968 167.955C58.941 154.464 65.2423 137.2 70.9603 121.344M46.7258 218.152C46.7258 218.152 49.2896 218.152 51.5064 218.264M51.5064 218.264C52.6741 218.323 53.7454 218.413 54.2952 218.551C55.2459 218.788 56.6221 219.31 58.6774 219.945M51.5064 218.264L49.5145 230.9M49.5145 230.9C51.2073 231.221 53.1912 231.601 55.0919 231.967M58.6774 219.945L55.0919 231.967M70.9603 121.344C70.5751 126.257 72.5192 137.279 83.3775 142.06M128.794 106.205C133.256 109.392 134.129 114.438 134.008 116.563L134.77 157.293V181.899M134.77 192.655H143.136M134.77 192.655V181.899M134.77 192.655H128.794M143.136 192.655V181.899M143.136 192.655H149.112M143.136 181.899H149.112M195.5 181.899L193.399 192.655H187.988M195.5 181.899H187.988M134.77 181.899H128.794M149.112 181.899V192.655M149.112 181.899H156.283M149.112 192.655H156.283M156.283 181.899V192.655M156.283 181.899H163.055M156.283 192.655H163.055M163.055 181.899V192.655M163.055 181.899H169.828M163.055 192.655H169.828M169.828 181.899V192.655M169.828 181.899H176.202M169.828 192.655H176.202M176.202 181.899V192.655M176.202 181.899H182.576M176.202 192.655H182.576M182.576 181.899V192.655M182.576 181.899H187.988M182.576 192.655H187.988M187.988 181.899V192.655M128.794 181.899V192.655M128.794 181.899H122.42M128.794 192.655H122.42M122.42 181.899V192.655M122.42 181.899H116.045M122.42 192.655H116.045M116.045 181.899V192.655M116.045 181.899H109.671M116.045 192.655H109.671M109.671 181.899V192.655M109.671 181.899H103.297M109.671 192.655H103.297M103.297 181.899V192.655M103.297 181.899H96.9228M103.297 192.655H96.9228M96.9228 181.899V192.655" stroke="black" stroke-width="2" stroke-linecap="round" stroke-linejoin="round"/>
<circle cx="138.754" cy="157.597" r="1.39033" fill="#EBC8B4" stroke="black" stroke-width="2"/>
<circle cx="138.754" cy="182.297" r="1.39033" fill="#EBC8B4" stroke="black" stroke-width="2"/>
<circle cx="138.754" cy="135.287" r="1.39033" fill="#EBC8B4" stroke="black" stroke-width="2"/>
<circle cx="138.754" cy="113.775" r="1.39033" fill="#EBC8B4" stroke="black" stroke-width="2"/>
</svg>
