<svg width="203" height="177" viewBox="0 0 203 177" fill="none" xmlns="http://www.w3.org/2000/svg">
<path d="M76.0455 1C83.4821 7.10863 104.012 15.6607 126.641 1L146.56 6.97583C148.419 7.37422 153.094 11.0394 156.918 22.513C158.993 28.7357 164.95 45.5521 171.726 64.3438C177.444 80.2004 183.745 97.4635 188.789 110.955C190.875 116.533 197.952 134.46 199.148 138.046C201.007 143.623 204.327 161.152 197.952 161.152H195.96C196.492 165.269 197.873 173.104 197.554 173.104C197.418 173.104 195.593 173.441 193.172 173.9C191.479 174.221 189.495 174.601 187.594 174.967C185.829 175.307 184.135 175.636 182.814 175.893L178.83 164.339C174.686 165.295 171.526 160.223 170.464 157.567L157.5 115C157 118.5 156.5 122 155.5 124.899L153.399 135.655H147.988H142.576H136.202H129.828H123.055H116.283H109.112H103.136H94.7697H88.7939H82.4197H76.0454H69.6712H63.297H56.9228H50.5486L48 124.899C47 122.5 46.5 121 46 117L32.2227 157.567C31.1603 160.223 27.9998 165.295 23.8565 164.339L19.8726 175.893C18.5507 175.636 16.8572 175.307 15.092 174.967C13.1913 174.601 11.2074 174.221 9.51453 173.9C7.0936 173.441 5.26795 173.104 5.13225 173.104C4.81354 173.104 6.19462 165.269 6.72581 161.152H4.73386C-1.64035 161.152 1.67955 143.623 3.5387 138.046C4.73386 134.46 11.8115 116.533 13.8968 110.955C18.941 97.4635 25.2423 80.2004 30.9603 64.3438C37.7366 45.5521 43.6936 28.7357 45.7679 22.513C49.5924 11.0394 54.2669 7.37422 56.126 6.97583L76.0455 1Z" fill="#EBC8B4"/>
<path d="M76.0455 1C74.0536 6.84303 75.8861 24.6643 99.152 49.205C99.7595 49.8125 100.28 50.4875 100.725 51.197M76.0455 1C83.4821 7.10863 104.012 15.6607 126.641 1M76.0455 1L56.126 6.97583C54.2669 7.37422 49.5924 11.0394 45.7679 22.513C43.6936 28.7357 37.7366 45.5521 30.9603 64.3438M100.725 51.197C102.614 54.2097 103.136 57.8434 103.136 59.5631V96.6133V107.37V124.899M100.725 51.197C111.09 41.1045 130.784 16.9355 126.641 1M126.641 1L146.56 6.97583C148.419 7.37422 153.094 11.0394 156.918 22.513C158.993 28.7357 164.95 45.5521 171.726 64.3438M135.405 4.98389C135.223 10.0003 133.337 20.0409 127.836 30.1747C126.993 31.7269 126.066 33.2812 125.047 34.82M117.876 43.6276C119.311 42.1928 120.637 40.7055 121.86 39.1845M148.552 45.2211C151.5 64.3438 155 87 155 87C155 87 157.5 109.024 157.5 115M157.5 115L170.464 157.567C171.526 160.223 174.686 165.295 178.83 164.339M157.5 115C157 118.5 156.5 122 155.5 124.899M178.83 164.339L182.814 175.893C184.135 175.636 185.829 175.307 187.594 174.967M178.83 164.339C180.919 163.857 182.619 163.375 184.009 162.945M195.96 161.152C196.492 165.269 197.873 173.104 197.554 173.104C197.418 173.104 195.593 173.441 193.172 173.9M195.96 161.152H197.952C204.327 161.152 201.007 143.623 199.148 138.046C197.952 134.46 190.875 116.533 188.789 110.955C183.745 97.4635 177.444 80.2004 171.726 64.3438M195.96 161.152C195.96 161.152 193.397 161.152 191.18 161.264M191.18 161.264C190.012 161.323 188.941 161.413 188.391 161.551C187.44 161.788 186.064 162.31 184.009 162.945M191.18 161.264L193.172 173.9M193.172 173.9C191.479 174.221 189.495 174.601 187.594 174.967M184.009 162.945L187.594 174.967M171.726 64.3438C172.111 69.2573 170.167 80.2793 159.309 85.06M67.2809 4.98389C67.5465 12.2877 68.6354 28.6482 82.0213 42.034M48 124.899C47 122.5 46.5 121 46 117M48 124.899L50.5486 135.655H56.9228M48 124.899H56.9228M54 45.2211C50.5486 64.3438 48 87.0519 48 87.0519C48 87.0519 46 108.708 46 117M46 117L32.2227 157.567C31.1603 160.223 27.9998 165.295 23.8565 164.339M23.8565 164.339L19.8726 175.893C18.5507 175.636 16.8572 175.307 15.092 174.967M23.8565 164.339C21.7674 163.857 20.0672 163.375 18.6775 162.945M6.72581 161.152C6.19462 165.269 4.81354 173.104 5.13225 173.104C5.26795 173.104 7.0936 173.441 9.51453 173.9M6.72581 161.152H4.73386C-1.64035 161.152 1.67955 143.623 3.5387 138.046C4.73386 134.46 11.8115 116.533 13.8968 110.955C18.941 97.4635 25.2423 80.2004 30.9603 64.3438M6.72581 161.152C6.72581 161.152 9.28964 161.152 11.5065 161.264M11.5065 161.264C12.6741 161.323 13.7454 161.413 14.2952 161.551C15.2459 161.788 16.6221 162.31 18.6775 162.945M11.5065 161.264L9.51453 173.9M9.51453 173.9C11.2074 174.221 13.1913 174.601 15.092 174.967M18.6775 162.945L15.092 174.967M30.9603 64.3438C30.5751 69.2573 32.5192 80.2793 43.3776 85.06M88.7939 49.205C93.2558 52.3921 94.1294 57.4384 94.0084 59.5631L94.7697 100.293V124.899M94.7697 135.655H103.136M94.7697 135.655V124.899M94.7697 135.655H88.7939M103.136 135.655V124.899M103.136 135.655H109.112M103.136 124.899H109.112M155.5 124.899L153.399 135.655H147.988M155.5 124.899H147.988M94.7697 124.899H88.7939M109.112 124.899V135.655M109.112 124.899H116.283M109.112 135.655H116.283M116.283 124.899V135.655M116.283 124.899H123.055M116.283 135.655H123.055M123.055 124.899V135.655M123.055 124.899H129.828M123.055 135.655H129.828M129.828 124.899V135.655M129.828 124.899H136.202M129.828 135.655H136.202M136.202 124.899V135.655M136.202 124.899H142.576M136.202 135.655H142.576M142.576 124.899V135.655M142.576 124.899H147.988M142.576 135.655H147.988M147.988 124.899V135.655M88.7939 124.899V135.655M88.7939 124.899H82.4197M88.7939 135.655H82.4197M82.4197 124.899V135.655M82.4197 124.899H76.0454M82.4197 135.655H76.0454M76.0454 124.899V135.655M76.0454 124.899H69.6712M76.0454 135.655H69.6712M69.6712 124.899V135.655M69.6712 124.899H63.297M69.6712 135.655H63.297M63.297 124.899V135.655M63.297 124.899H56.9228M63.297 135.655H56.9228M56.9228 124.899V135.655" stroke="black" stroke-width="2" stroke-linecap="round" stroke-linejoin="round"/>
<circle cx="98.7536" cy="100.597" r="1.39033" fill="#EBC8B4" stroke="black" stroke-width="2"/>
<circle cx="98.7536" cy="125.297" r="1.39033" fill="#EBC8B4" stroke="black" stroke-width="2"/>
<circle cx="98.7536" cy="78.2873" r="1.39033" fill="#EBC8B4" stroke="black" stroke-width="2"/>
<circle cx="98.7536" cy="56.7746" r="1.39033" fill="#EBC8B4" stroke="black" stroke-width="2"/>
</svg>
