<svg width="210" height="201" viewBox="0 0 210 201" fill="none" xmlns="http://www.w3.org/2000/svg">
<path fill-rule="evenodd" clip-rule="evenodd" d="M71.516 26V6.5L73.016 4.5L82.016 2.5L98.016 1H110.516L123.016 2L131.016 3.5L135.016 5L136.016 6.5L136.516 26.5L142.516 26L149.516 26.5L159.516 30L166.016 34.5L186.016 53.5L203.016 70.5L206.516 75.5L208.016 82V92L208.516 108V118L206.516 124.5L202.516 128.5L195.016 132.5L184.016 139L172.516 145L162.016 150.5V175V179L161.016 183.5L158.516 186.5L157.016 187V199.5H52.516V187L49.516 185.5L47.516 179V151.5L32.516 143L12.516 132.5L6.01599 128.5L2.01599 122L1.01599 115V102.5V82.5L2.51599 76.5L5.51599 71.5L11.516 65L20.016 56.5L37.016 40.5L45.516 33.5L51.516 29.5L57.516 27.5L63.516 26.5L69.016 26H71.516ZM47.516 93.5V115.5L35.016 105L47.516 93.5ZM175.016 105L162.016 94V116L175.016 105Z" fill="#DAB199"/>
<path d="M204.516 72C193.349 60.5 169.216 36.3 162.016 31.5V93V115.768C154.762 121.901 147.954 127.645 143.016 131.785C139.113 135.058 136.378 137.329 135.516 138C131.916 140.8 132.349 144.167 133.016 145.5C133.358 146.142 133.828 147.007 134.377 148C135.522 150.07 137.015 152.694 138.427 155C138.978 155.899 139.516 156.749 140.016 157.5C142.416 161.1 146.349 159.667 148.016 158.5C150.614 157.118 153.681 155.485 157.016 153.708C158.628 152.849 160.302 151.956 162.016 151.042C178.143 142.437 197.793 131.913 202.016 129.5C207.616 126.3 208.683 118.5 208.516 115V84C208.516 77.6 205.849 73.3333 204.516 72Z" fill="#DAB199"/>
<path d="M71.516 6.8143C71.516 -1.18616 136.516 -0.686013 136.516 6.8143M71.516 6.8143V26.314M71.516 6.8143C71.516 8.68492 75.07 10.1728 80.516 11.2396M136.516 6.8143C136.516 8.31419 136.516 14.314 136.516 26.314M136.516 6.8143C136.516 8.73524 133.555 10.2006 128.896 11.2396M71.516 26.314C66.516 26.0426 54.716 26.7 47.516 31.5M71.516 26.314C73.5506 28.626 76.6869 30.4934 80.516 31.9254M136.516 26.314C147.716 24.5651 158.183 29.0426 162.016 31.5M136.516 26.314C134.749 28.2773 132.115 29.9327 128.896 31.2738M47.516 31.5C40.316 36.3 16.1827 60.5 5.01599 72C3.68266 73.3333 1.01599 77.6 1.01599 84C1.01599 90.4 1.01599 107.333 1.01599 115C0.849325 118.5 1.91599 126.3 7.51599 129.5C11.7386 131.913 31.3885 142.437 47.516 151.042M47.516 31.5V93M16.516 89.5C21.5102 93.7403 27.9881 99.2353 34.7931 105M34.7931 105C39.0001 108.564 43.3322 112.231 47.516 115.768M34.7931 105L47.516 93M47.516 115.768V93M47.516 115.768C54.77 121.901 61.5782 127.645 66.516 131.785M52.516 153.708C55.8509 155.485 58.9181 157.118 61.516 158.5C63.1827 159.667 67.116 161.1 69.516 157.5C70.0164 156.749 70.5544 155.899 71.1048 155M52.516 153.708L57.1189 146.5M52.516 153.708C50.9043 152.849 49.23 151.956 47.516 151.042M66.516 131.785C70.4192 135.058 73.1537 137.329 74.016 138C77.616 140.8 77.1827 144.167 76.516 145.5C76.1738 146.142 75.7044 147.007 75.1549 148M66.516 131.785L61.8174 139.143M57.1189 146.5L71.1048 155M57.1189 146.5L61.8174 139.143M71.1048 155C72.5167 152.694 74.0096 150.07 75.1549 148M61.8174 139.143L75.1549 148M47.516 151.042V179C47.6484 181.667 48.8337 187 52.516 187M52.516 187V200H61.516M52.516 187C53.6004 187 56.9541 187 61.516 187M162.016 31.5C169.216 36.3 193.349 60.5 204.516 72C205.849 73.3333 208.516 77.6 208.516 84V115C208.683 118.5 207.616 126.3 202.016 129.5C197.793 131.913 178.143 142.437 162.016 151.042M162.016 31.5V93M174.739 105C181.544 99.2353 188.022 93.7403 193.016 89.5M174.739 105C170.532 108.564 166.2 112.231 162.016 115.768M174.739 105L162.016 93M162.016 115.768V93M162.016 115.768C154.762 121.901 147.954 127.645 143.016 131.785M157.016 153.708C153.681 155.485 150.614 157.118 148.016 158.5C146.349 159.667 142.416 161.1 140.016 157.5C139.516 156.749 138.978 155.899 138.427 155M157.016 153.708L152.413 146.5M157.016 153.708C158.628 152.849 160.302 151.956 162.016 151.042M143.016 131.785C139.113 135.058 136.378 137.329 135.516 138C131.916 140.8 132.349 144.167 133.016 145.5C133.358 146.142 133.828 147.007 134.377 148M143.016 131.785L147.715 139.143M152.413 146.5L147.715 139.143M152.413 146.5L138.427 155M138.427 155C137.015 152.694 135.522 150.07 134.377 148M147.715 139.143L134.377 148M162.016 151.042V179C161.884 181.667 160.698 187 157.016 187M157.016 187V200H148.516M157.016 187H148.516M61.516 187V200M61.516 187C64.3345 187 67.6142 187 71.1048 187M61.516 200H71.1048M71.1048 187V200M71.1048 187C74.1374 187 77.3291 187 80.516 187M71.1048 200H80.516M80.516 187V200M80.516 187C84.2796 187 88.0364 187 91.516 187M80.516 200H91.516M91.516 187C94.8496 187 97.9289 187 100.516 187H103.016M91.516 187V200M91.516 200H100.516H103.016M103.016 187V200M103.016 187H113.016M103.016 200H113.016M113.016 187V200M113.016 187H122.016M113.016 200H122.016M122.016 187V200M122.016 187H131.516M122.016 200H131.516M131.516 187V200M131.516 187H140.016M131.516 200H140.016M140.016 187V200M140.016 187H148.516M140.016 200H148.516M148.516 187V200M96.016 48.5C91.1827 48.1667 79.516 46.7 73.516 41.5M67.016 34C67.016 34 67.3213 35.4046 70.3181 38.5M80.516 11.2396V31.9254M80.516 11.2396C83.914 11.9052 88.0486 12.4069 92.516 12.7353M80.516 31.9254C84.0363 33.2419 88.1422 34.1906 92.516 34.7787M92.516 12.7353V34.7787M92.516 12.7353C96.3556 13.0176 100.441 13.1719 104.516 13.1923M92.516 34.7787C96.3799 35.2983 100.453 35.5365 104.516 35.4985M104.516 13.1923V35.4985M104.516 13.1923C108.793 13.2137 113.058 13.0876 117.016 12.8072M104.516 35.4985C108.778 35.4586 113.029 35.1147 117.016 34.4728M117.016 12.8072V34.4728M117.016 12.8072C121.521 12.488 125.626 11.9688 128.896 11.2396M117.016 34.4728C121.409 33.7656 125.481 32.6967 128.896 31.2738M128.896 11.2396V31.2738" stroke="black" stroke-width="2" stroke-linecap="round" stroke-linejoin="round"/>
</svg>
