<svg width="287" height="290" viewBox="0 0 287 290" fill="none" xmlns="http://www.w3.org/2000/svg">
<rect width="287" height="290" fill="white"/>
<path fill-rule="evenodd" clip-rule="evenodd" d="M110.516 61V41.5L112.016 39.5L121.016 37.5L137.016 36H149.516L162.016 37L170.016 38.5L174.016 40L175.016 41.5L175.516 61.5L181.516 61L188.516 61.5L198.516 65L205.016 69.5L225.016 88.5L242.016 105.5L245.516 110.5L247.016 117V127L247.516 143V153L245.516 159.5L241.516 163.5L234.016 167.5L223.016 174L211.516 180L201.016 185.5V210V214L200.016 218.5L197.516 221.5L196.016 222V234.5H91.516V222L88.516 220.5L86.516 214V186.5L71.516 178L51.516 167.5L45.016 163.5L41.016 157L40.016 150V137.5V117.5L41.516 111.5L44.516 106.5L50.516 100L59.016 91.5L76.016 75.5L84.516 68.5L90.516 64.5L96.516 62.5L102.516 61.5L108.016 61H110.516ZM86.516 128.5V150.5L74.016 140L86.516 128.5ZM214.016 140L201.016 129V151L214.016 140Z" fill="#DAB199"/>
<path d="M243.516 107C232.349 95.5 208.216 71.3 201.016 66.5V128V150.768C193.762 156.901 186.954 162.645 182.016 166.785C178.113 170.058 175.378 172.329 174.516 173C170.916 175.8 171.349 179.167 172.016 180.5C172.358 181.142 172.828 182.007 173.377 183C174.522 185.07 176.015 187.694 177.427 190C177.978 190.899 178.516 191.749 179.016 192.5C181.416 196.1 185.349 194.667 187.016 193.5C189.614 192.118 192.681 190.485 196.016 188.708C197.628 187.849 199.302 186.956 201.016 186.042C217.143 177.437 236.793 166.913 241.016 164.5C246.616 161.3 247.683 153.5 247.516 150V119C247.516 112.6 244.849 108.333 243.516 107Z" fill="#DAB199"/>
<path d="M110.516 41.8143C110.516 33.8138 175.516 34.314 175.516 41.8143M110.516 41.8143V61.314M110.516 41.8143C110.516 43.6849 114.07 45.1728 119.516 46.2396M175.516 41.8143C175.516 43.3142 175.516 49.314 175.516 61.314M175.516 41.8143C175.516 43.7352 172.555 45.2006 167.896 46.2396M110.516 61.314C105.516 61.0426 93.716 61.7 86.516 66.5M110.516 61.314C112.551 63.626 115.687 65.4934 119.516 66.9254M175.516 61.314C186.716 59.5651 197.183 64.0426 201.016 66.5M175.516 61.314C173.749 63.2773 171.115 64.9327 167.896 66.2738M86.516 66.5C79.316 71.3 55.1827 95.5 44.016 107C42.6827 108.333 40.016 112.6 40.016 119C40.016 125.4 40.016 142.333 40.016 150C39.8493 153.5 40.916 161.3 46.516 164.5C50.7386 166.913 70.3885 177.437 86.516 186.042M86.516 66.5V128M55.516 124.5C60.5102 128.74 66.9881 134.235 73.7931 140M73.7931 140C78.0001 143.564 82.3322 147.231 86.516 150.768M73.7931 140L86.516 128M86.516 150.768V128M86.516 150.768C93.77 156.901 100.578 162.645 105.516 166.785M91.516 188.708C94.8509 190.485 97.9181 192.118 100.516 193.5C102.183 194.667 106.116 196.1 108.516 192.5C109.016 191.749 109.554 190.899 110.105 190M91.516 188.708L96.1189 181.5M91.516 188.708C89.9043 187.849 88.23 186.956 86.516 186.042M105.516 166.785C109.419 170.058 112.154 172.329 113.016 173C116.616 175.8 116.183 179.167 115.516 180.5C115.174 181.142 114.704 182.007 114.155 183M105.516 166.785L100.817 174.143M96.1189 181.5L110.105 190M96.1189 181.5L100.817 174.143M110.105 190C111.517 187.694 113.01 185.07 114.155 183M100.817 174.143L114.155 183M86.516 186.042V214C86.6484 216.667 87.8337 222 91.516 222M91.516 222V235H100.516M91.516 222C92.6004 222 95.9541 222 100.516 222M201.016 66.5C208.216 71.3 232.349 95.5 243.516 107C244.849 108.333 247.516 112.6 247.516 119V150C247.683 153.5 246.616 161.3 241.016 164.5C236.793 166.913 217.143 177.437 201.016 186.042M201.016 66.5V128M213.739 140C220.544 134.235 227.022 128.74 232.016 124.5M213.739 140C209.532 143.564 205.2 147.231 201.016 150.768M213.739 140L201.016 128M201.016 150.768V128M201.016 150.768C193.762 156.901 186.954 162.645 182.016 166.785M196.016 188.708C192.681 190.485 189.614 192.118 187.016 193.5C185.349 194.667 181.416 196.1 179.016 192.5C178.516 191.749 177.978 190.899 177.427 190M196.016 188.708L191.413 181.5M196.016 188.708C197.628 187.849 199.302 186.956 201.016 186.042M182.016 166.785C178.113 170.058 175.378 172.329 174.516 173C170.916 175.8 171.349 179.167 172.016 180.5C172.358 181.142 172.828 182.007 173.377 183M182.016 166.785L186.715 174.143M191.413 181.5L186.715 174.143M191.413 181.5L177.427 190M177.427 190C176.015 187.694 174.522 185.07 173.377 183M186.715 174.143L173.377 183M201.016 186.042V214C200.884 216.667 199.698 222 196.016 222M196.016 222V235H187.516M196.016 222H187.516M100.516 222V235M100.516 222C103.334 222 106.614 222 110.105 222M100.516 235H110.105M110.105 222V235M110.105 222C113.137 222 116.329 222 119.516 222M110.105 235H119.516M119.516 222V235M119.516 222C123.28 222 127.036 222 130.516 222M119.516 235H130.516M130.516 222C133.85 222 136.929 222 139.516 222H142.016M130.516 222V235M130.516 235H139.516H142.016M142.016 222V235M142.016 222H152.016M142.016 235H152.016M152.016 222V235M152.016 222H161.016M152.016 235H161.016M161.016 222V235M161.016 222H170.516M161.016 235H170.516M170.516 222V235M170.516 222H179.016M170.516 235H179.016M179.016 222V235M179.016 222H187.516M179.016 235H187.516M187.516 222V235M135.016 83.5C130.183 83.1667 118.516 81.7 112.516 76.5M106.016 69C106.016 69 106.321 70.4046 109.318 73.5M119.516 46.2396V66.9254M119.516 46.2396C122.914 46.9052 127.049 47.4069 131.516 47.7353M119.516 66.9254C123.036 68.2419 127.142 69.1906 131.516 69.7787M131.516 47.7353V69.7787M131.516 47.7353C135.356 48.0176 139.441 48.1719 143.516 48.1923M131.516 69.7787C135.38 70.2983 139.453 70.5365 143.516 70.4985M143.516 48.1923V70.4985M143.516 48.1923C147.793 48.2137 152.058 48.0876 156.016 47.8072M143.516 70.4985C147.778 70.4586 152.029 70.1147 156.016 69.4728M156.016 47.8072V69.4728M156.016 47.8072C160.521 47.488 164.626 46.9688 167.896 46.2396M156.016 69.4728C160.409 68.7656 164.481 67.6967 167.896 66.2738M167.896 46.2396V66.2738" stroke="black" stroke-width="2" stroke-linecap="round" stroke-linejoin="round"/>
</svg>
