<svg width="287" height="290" viewBox="0 0 287 290" fill="none" xmlns="http://www.w3.org/2000/svg">
<rect width="287" height="290" fill="white"/>
<path d="M91 162.5C94.6 131.7 115.833 111.667 126 105.5H162.5C172.5 112 194 132.5 198 162.5C199.833 162.667 203.5 164.3 203.5 169.5V188.5C203.333 190.833 201.6 195.5 196 195.5H93C90 195.5 84 194.2 84 189V168.5C84.1667 166.5 85.8 162.5 91 162.5Z" fill="#EBC8B4"/>
<path d="M91 162.5C94.6 131.7 115.833 111.667 126 105.5H162.5C172.5 112 194 132.5 198 162.5M91 162.5H198M91 162.5C85.8 162.5 84.1667 166.5 84 168.5C84 173.167 84 183.8 84 189C84 194.2 90 195.5 93 195.5C125 195.5 190.4 195.5 196 195.5C201.6 195.5 203.333 190.833 203.5 188.5C203.5 184.333 203.5 174.7 203.5 169.5C203.5 164.3 199.833 162.667 198 162.5M131 110.5C125.833 118.667 115.4 140.5 115 162.5M144.5 118L144 162.5M158 110.5C163.333 121.667 173.9 147.7 173.5 162.5M95 172.5V185M107 172.5V185M119.5 172.5V185M131.5 172.5V185M144 172.5V185M156.5 172.5V185M168.5 172.5V185M181 172.5V185M193.5 172.5V185" stroke="black" stroke-width="2" stroke-linecap="round" stroke-linejoin="round"/>
<path d="M141.782 74.9188C142.972 73.6127 145.028 73.6127 146.218 74.9188L146.957 74.2453L146.218 74.9188L146.607 75.3458C147.922 76.7898 149.958 77.3354 151.82 76.7426L152.37 76.5674C154.054 76.0313 155.834 77.0589 156.211 78.785L156.334 79.3492C156.752 81.2576 158.242 82.7481 160.151 83.1655L160.715 83.2889C162.441 83.6664 163.469 85.4463 162.933 87.1299L162.757 87.6803C162.165 89.5416 162.71 91.5778 164.154 92.8934L164.581 93.2824C165.887 94.4723 165.887 96.5277 164.581 97.7176L164.154 98.1066C162.71 99.4222 162.165 101.458 162.757 103.32L162.933 103.87C163.469 105.554 162.441 107.334 160.715 107.711L160.151 107.834C158.242 108.252 156.752 109.742 156.334 111.651L156.211 112.215C155.834 113.941 154.054 114.969 152.37 114.433L151.82 114.257C149.958 113.665 147.922 114.21 146.607 115.654L146.218 116.081C145.028 117.387 142.972 117.387 141.782 116.081L141.393 115.654C140.078 114.21 138.042 113.665 136.18 114.257L135.63 114.433C133.946 114.969 132.166 113.941 131.789 112.215L131.666 111.651C131.248 109.742 129.758 108.252 127.849 107.834L127.285 107.711C125.559 107.334 124.531 105.554 125.067 103.87L125.243 103.32C125.835 101.458 125.29 99.4222 123.846 98.1066L123.419 97.7176L122.745 98.4568L123.419 97.7176C122.113 96.5277 122.113 94.4723 123.419 93.2824L122.745 92.5432L123.419 93.2824L123.846 92.8934C125.29 91.5778 125.835 89.5416 125.243 87.6803L125.067 87.1299C124.531 85.4463 125.559 83.6664 127.285 83.2889L127.849 83.1655C129.758 82.7481 131.248 81.2576 131.666 79.3492L131.789 78.785C132.166 77.0589 133.946 76.0313 135.63 76.5674L136.18 76.7426C138.042 77.3354 140.078 76.7898 141.393 75.3458L141.782 74.9188L141.043 74.2453L141.782 74.9188Z" fill="#EBC8B4" stroke="black" stroke-width="2"/>
</svg>
