<svg width="122" height="126" viewBox="0 0 122 126" fill="none" xmlns="http://www.w3.org/2000/svg">
<path d="M8 91.5C11.6 60.7 32.8333 40.6667 43 34.5H79.5C89.5 41 111 61.5 115 91.5C116.833 91.6667 120.5 93.3 120.5 98.5V117.5C120.333 119.833 118.6 124.5 113 124.5H10C7 124.5 1 123.2 1 118V97.5C1.16667 95.5 2.8 91.5 8 91.5Z" fill="#EBC8B4"/>
<path d="M8 91.5C11.6 60.7 32.8333 40.6667 43 34.5H79.5C89.5 41 111 61.5 115 91.5M8 91.5H115M8 91.5C2.8 91.5 1.16667 95.5 1 97.5C1 102.167 1 112.8 1 118C1 123.2 7 124.5 10 124.5C42 124.5 107.4 124.5 113 124.5C118.6 124.5 120.333 119.833 120.5 117.5C120.5 113.333 120.5 103.7 120.5 98.5C120.5 93.3 116.833 91.6667 115 91.5M48 39.5C42.8333 47.6667 32.4 69.5 32 91.5M61.5 47L61 91.5M75 39.5C80.3333 50.6667 90.9 76.7 90.5 91.5M12 101.5V114M24 101.5V114M36.5 101.5V114M48.5 101.5V114M61 101.5V114M73.5 101.5V114M85.5 101.5V114M98 101.5V114M110.5 101.5V114" stroke="black" stroke-width="2" stroke-linecap="round" stroke-linejoin="round"/>
<path d="M58.7824 3.91881C59.9723 2.61275 62.0277 2.61275 63.2176 3.91881L63.9568 3.24533L63.2176 3.91881L63.6066 4.34577C64.9222 5.78978 66.9584 6.33536 68.8197 5.74262L69.3701 5.56737C71.0536 5.03126 72.8336 6.05891 73.2111 7.78497L73.3345 8.34922C73.7519 10.2576 75.2424 11.7481 77.1508 12.1655L77.715 12.2889C79.4411 12.6664 80.4687 14.4463 79.9326 16.1299L79.7574 16.6803C79.1646 18.5416 79.7102 20.5778 81.1542 21.8934L81.5812 22.2824C82.8873 23.4723 82.8873 25.5277 81.5812 26.7176L81.1542 27.1066C79.7102 28.4222 79.1646 30.4584 79.7574 32.3197L79.9326 32.8701C80.4687 34.5536 79.4411 36.3336 77.715 36.7111L77.1508 36.8345C75.2424 37.2519 73.7519 38.7424 73.3345 40.6508L73.2111 41.215C72.8336 42.9411 71.0537 43.9687 69.3701 43.4326L68.8197 43.2574C66.9584 42.6646 64.9222 43.2102 63.6066 44.6542L63.2176 45.0812C62.0277 46.3873 59.9723 46.3873 58.7824 45.0812L58.3934 44.6542C57.0778 43.2102 55.0416 42.6646 53.1803 43.2574L52.6299 43.4326C50.9463 43.9687 49.1664 42.9411 48.7889 41.215L48.6655 40.6508C48.2481 38.7424 46.7576 37.2519 44.8492 36.8345L44.285 36.7111C42.5589 36.3336 41.5313 34.5537 42.0674 32.8701L42.2426 32.3197C42.8354 30.4584 42.2898 28.4222 40.8458 27.1066L40.4188 26.7176L39.7453 27.4568L40.4188 26.7176C39.1127 25.5277 39.1127 23.4723 40.4188 22.2824L39.7453 21.5432L40.4188 22.2824L40.8458 21.8934C42.2898 20.5778 42.8354 18.5416 42.2426 16.6803L42.0674 16.1299C41.5313 14.4463 42.5589 12.6664 44.285 12.2889L44.8492 12.1655C46.7576 11.7481 48.2481 10.2576 48.6655 8.34922L48.7889 7.78497C49.1664 6.05891 50.9463 5.03126 52.6299 5.56737L53.1803 5.74262C55.0416 6.33536 57.0778 5.78978 58.3934 4.34577L58.7824 3.91881L58.0432 3.24533L58.7824 3.91881Z" fill="#EBC8B4" stroke="black" stroke-width="2"/>
</svg>
