<svg width="223" height="179" viewBox="0 0 223 179" fill="none" xmlns="http://www.w3.org/2000/svg">
<path fill-rule="evenodd" clip-rule="evenodd" d="M155 4H149.5C148.833 3.5 147.2 2.2 146 1C120.4 11.4 96.6667 5.33333 88 1L84.5 4.5L81 5L75.5 5.5L69.5 6.5L63.5 8.5L57.5 12.5L49 20L41 29.5L34 39L28 46L25 51L20.5 59.5L13 77L8 96.5L5 126.5L3 145.5L1 158L2 161L5 162.5L18.5 165L22.5 164.5L25 160.5L28 151.5L38 122L39.3233 119.282L60.5 72V130.5V158L62.5 163.5L64.5 166V178.5H169V166L170.5 165.5L173 162.5L174 158V154V129.5L184.5 124L196 118L207 111.5L214.5 107.5L218.5 103.5L220.5 97V87V70.5L221 60.5L219.5 52.5L215 47L198.5 31L179.5 13.5L173 8.5L163.5 5L155 4ZM175 71V94.5L188 82.5L175 71Z" fill="#DAB199"/>
<path d="M84.5328 4.31416C79.5328 4.04284 67.7328 4.70019 60.5328 9.50019M84.5328 4.31416C86.5675 6.62623 89.7037 8.49355 93.5328 9.92559C97.0531 11.2421 101.159 12.1908 105.533 12.7789C109.397 13.2985 113.47 13.5367 117.533 13.4987C121.795 13.4588 126.046 13.1149 130.033 12.473C134.425 11.7658 138.498 10.6969 141.913 9.27401C145.132 7.93293 147.766 6.27746 149.533 4.31416M84.5328 4.31416L88 1C101 8.5 127.5 9.92559 146 1.00002C147.5 2.50002 148.689 3.70945 149.533 4.31416M149.533 4.31416C160.733 2.56533 171.199 7.04284 175.033 9.50019M60.5328 9.50019V71.0002M60.5328 9.50019C41.0168 26.5002 11.0819 62.5002 7.76705 99.0002L2.74762 145.356M60.5328 71.0002V93.7684V129.042V157C60.6652 159.667 61.8505 165 65.5328 165M60.5328 71.0002L40.5168 116.5L28.0967 151.189M65.5328 165V178H74.5328M65.5328 165C66.6172 165 69.9709 165 74.5328 165M175.033 9.50019C182.233 14.3002 206.366 38.5002 217.533 50.0002C218.866 51.3335 221.533 55.6002 221.533 62.0002V93.0002C221.699 96.5002 220.633 104.3 215.033 107.5C210.81 109.913 191.16 120.438 175.033 129.042M175.033 9.50019V71.0002M187.756 83.0002C194.561 77.2355 201.039 71.7405 206.033 67.5002M187.756 83.0002C183.549 86.5641 179.217 90.2311 175.033 93.7684M187.756 83.0002L175.033 71.0002M175.033 93.7684V71.0002M175.033 93.7684C167.779 99.9015 160.971 105.645 156.033 109.785M170.033 131.708C166.698 133.485 163.631 135.118 161.033 136.5C159.366 137.667 155.433 139.1 153.033 135.5C152.532 134.75 151.994 133.899 151.444 133M170.033 131.708L165.43 124.5M170.033 131.708C171.645 130.849 173.319 129.956 175.033 129.042M156.033 109.785C152.13 113.058 149.395 115.33 148.533 116C144.933 118.8 145.366 122.167 146.033 123.5C146.375 124.142 146.844 125.007 147.394 126M156.033 109.785L160.731 117.143M165.43 124.5L160.731 117.143M165.43 124.5L151.444 133M151.444 133C150.032 130.694 148.539 128.07 147.394 126M160.731 117.143L147.394 126M175.033 129.042V157C174.9 159.667 173.715 165 170.033 165M170.033 165V178H161.533M170.033 165H161.533M74.5328 165V178M74.5328 165C77.3513 165 80.631 165 84.1216 165M74.5328 178H84.1216M84.1216 165V178M84.1216 165C87.1542 165 90.346 165 93.5328 165M84.1216 178H93.5328M93.5328 165V178M93.5328 165C97.2965 165 101.053 165 104.533 165M93.5328 178H104.533M104.533 165C107.866 165 110.946 165 113.533 165H116.033M104.533 165V178M104.533 178H113.533H116.033M116.033 165V178M116.033 165H126.033M116.033 178H126.033M126.033 165V178M126.033 165H135.033M126.033 178H135.033M135.033 165V178M135.033 165H144.533M135.033 178H144.533M144.533 165V178M144.533 165H153.033M144.533 178H153.033M153.033 165V178M153.033 165H161.533M153.033 178H161.533M161.533 165V178M2.74762 145.356C2.19213 149.094 1.68287 152.531 1.25274 155.442C0.712886 157.403 0.682324 161.59 4.87889 162.643C5.75384 162.862 6.73562 163.084 7.76705 163.3M2.74762 145.356L11.0819 147.273M28.0967 151.189C26.3231 155.964 25.1009 159.302 24.7584 160.339C23.3285 164.67 20.0116 165.391 18.5319 165.211C17.8128 165.104 16.84 164.952 15.7202 164.767M28.0967 151.189L19.5893 149.231M11.0819 147.273L19.5893 149.231M11.0819 147.273L7.76705 163.3M7.76705 163.3C10.4132 163.857 13.386 164.383 15.7202 164.767M19.5893 149.231L15.7202 164.767" stroke="black" stroke-width="2" stroke-linecap="round" stroke-linejoin="round"/>
</svg>
