<svg width="287" height="290" viewBox="0 0 287 290" fill="none" xmlns="http://www.w3.org/2000/svg">
<rect width="287" height="290" transform="matrix(-1 0 0 1 287 0)" fill="white"/>
<path fill-rule="evenodd" clip-rule="evenodd" d="M184 66H178.5C177.833 65.5 176.2 64.2 175 63C149.4 73.4 125.667 67.3333 117 63L113.5 66.5L110 67L104.5 67.5L98.5 68.5L92.5 70.5L86.5 74.5L78 82L70 91.5L63 101L57 108L54 113L49.5 121.5L42 139L37 158.5L34 188.5L32 207.5L30 220L31 223L34 224.5L47.5 227L51.5 226.5L54 222.5L57 213.5L67 184L68.3233 181.282L89.5 134V192.5V220L91.5 225.5L93.5 228V240.5H198V228L199.5 227.5L202 224.5L203 220V216V191.5L213.5 186L225 180L236 173.5L243.5 169.5L247.5 165.5L249.5 159V149V132.5L250 122.5L248.5 114.5L244 109L227.5 93L208.5 75.5L202 70.5L192.5 67L184 66ZM204 133V156.5L217 144.5L204 133Z" fill="#DAB199"/>
<path d="M113.533 66.3142C108.533 66.0428 96.7328 66.7002 89.5328 71.5002M113.533 66.3142C115.567 68.6262 118.704 70.4935 122.533 71.9256C126.053 73.2421 130.159 74.1908 134.533 74.7789C138.397 75.2985 142.47 75.5367 146.533 75.4987C150.795 75.4588 155.046 75.1149 159.033 74.473C163.425 73.7658 167.498 72.6969 170.913 71.274C174.132 69.9329 176.766 68.2775 178.533 66.3142M113.533 66.3142L117 63C130 70.5 156.5 71.9256 175 63C176.5 64.5 177.689 65.7094 178.533 66.3142M178.533 66.3142C189.733 64.5653 200.199 69.0428 204.033 71.5002M89.5328 71.5002V133M89.5328 71.5002C70.0168 88.5002 40.0819 124.5 36.767 161L31.7476 207.356M89.5328 133V155.768V191.042V219C89.6652 221.667 90.8505 227 94.5328 227M89.5328 133L69.5168 178.5L57.0967 213.189M94.5328 227V240H103.533M94.5328 227C95.6172 227 98.9709 227 103.533 227M204.033 71.5002C211.233 76.3002 235.366 100.5 246.533 112C247.866 113.334 250.533 117.6 250.533 124V155C250.699 158.5 249.633 166.3 244.033 169.5C239.81 171.913 220.16 182.438 204.033 191.042M204.033 71.5002V133M216.756 145C223.561 139.236 230.039 133.741 235.033 129.5M216.756 145C212.549 148.564 208.217 152.231 204.033 155.768M216.756 145L204.033 133M204.033 155.768V133M204.033 155.768C196.779 161.902 189.971 167.645 185.033 171.785M199.033 193.708C195.698 195.485 192.631 197.118 190.033 198.5C188.366 199.667 184.433 201.1 182.033 197.5C181.532 196.75 180.994 195.899 180.444 195M199.033 193.708L194.43 186.5M199.033 193.708C200.645 192.849 202.319 191.956 204.033 191.042M185.033 171.785C181.13 175.058 178.395 177.33 177.533 178C173.933 180.8 174.366 184.167 175.033 185.5C175.375 186.142 175.844 187.007 176.394 188M185.033 171.785L189.731 179.143M194.43 186.5L189.731 179.143M194.43 186.5L180.444 195M180.444 195C179.032 192.694 177.539 190.07 176.394 188M189.731 179.143L176.394 188M204.033 191.042V219C203.9 221.667 202.715 227 199.033 227M199.033 227V240H190.533M199.033 227H190.533M103.533 227V240M103.533 227C106.351 227 109.631 227 113.122 227M103.533 240H113.122M113.122 227V240M113.122 227C116.154 227 119.346 227 122.533 227M113.122 240H122.533M122.533 227V240M122.533 227C126.296 227 130.053 227 133.533 227M122.533 240H133.533M133.533 227C136.866 227 139.946 227 142.533 227H145.033M133.533 227V240M133.533 240H142.533H145.033M145.033 227V240M145.033 227H155.033M145.033 240H155.033M155.033 227V240M155.033 227H164.033M155.033 240H164.033M164.033 227V240M164.033 227H173.533M164.033 240H173.533M173.533 227V240M173.533 227H182.033M173.533 240H182.033M182.033 227V240M182.033 227H190.533M182.033 240H190.533M190.533 227V240M31.7476 207.356C31.1921 211.094 30.6829 214.531 30.2527 217.442C29.7129 219.403 29.6823 223.59 33.8789 224.643C34.7538 224.862 35.7356 225.084 36.767 225.3M31.7476 207.356L40.0819 209.273M57.0967 213.189C55.3231 217.964 54.1009 221.302 53.7584 222.339C52.3285 226.67 49.0116 227.391 47.5319 227.211C46.8128 227.104 45.84 226.952 44.7202 226.767M57.0967 213.189L48.5893 211.231M40.0819 209.273L48.5893 211.231M40.0819 209.273L36.767 225.3M36.767 225.3C39.4132 225.857 42.386 226.383 44.7202 226.767M48.5893 211.231L44.7202 226.767" stroke="black" stroke-width="2" stroke-linecap="round" stroke-linejoin="round"/>
</svg>
