<svg width="287" height="290" viewBox="0 0 287 290" fill="none" xmlns="http://www.w3.org/2000/svg">
<rect width="287" height="290" transform="matrix(-1 0 0 1 287 0)" fill="white"/>
<path d="M211.5 109.5C216.7 120.701 213.667 127.834 211.5 130C202.945 138.611 191.273 150.358 179.205 162.501L198 181.5C201.5 185.5 202.196 189.909 199.979 195.001C199.527 196.04 198.882 197.051 198 198C196.936 199.146 195.562 200.576 194 202.172C191.819 204.402 189.271 206.958 186.693 209.521C184.819 211.385 182.928 213.252 181.15 215.001C178.562 217.545 176.213 219.838 174.5 221.5C172.167 223.167 165.6 224.8 158 218C150.4 211.201 143.167 204.121 140.5 201.432C137.519 204.428 134.808 207.153 132.45 209.521C131.763 210.212 130 212 130 212C128.826 213.179 127.841 214.165 127 215.006C125.722 216.283 124.776 217.225 124 218C116.354 225.646 110.671 224.535 108 222.473C107.597 222.161 107.262 221.828 107 221.5C105.39 219.942 103.103 217.733 100.5 215.225C98.3182 213.122 95.9142 210.81 93.4999 208.493C90.9686 206.064 88.4259 203.631 86.1165 201.432C84.8236 200.201 83.6038 199.043 82.5 198C81.2638 196.833 80.3637 195.659 79.7358 194.501C76.7068 188.914 80.015 183.709 82.5 181.5L89.0001 175L91.9999 172L94.9999 169L101.687 162.501C92.458 153.667 72.7999 134.801 67.9999 130C63.1999 125.2 65.9999 118.001 67.9999 115.001C70.8333 108.001 77.7 91.2005 82.5 80.0005C86.7857 70.0004 93.9999 69.9999 99.4999 70.0005H185C194.2 70.0005 196.5 76.6791 198 80.0005C200.333 85.1672 206.3 98.3005 211.5 109.5Z" fill="#EBC8B4"/>
<path d="M185 80.0005L140.5 124.066M101.687 162.501C92.458 153.667 72.7999 134.801 67.9999 130C63.1999 125.2 65.9999 118.001 67.9999 115.001C70.8333 108.001 77.7 91.2005 82.5 80.0005C86.7857 70.0004 93.9999 69.9999 99.4999 70.0005C124.167 70.0005 175.8 70.0005 185 70.0005C194.2 70.0005 196.5 76.6791 198 80.0005C200.333 85.1672 206.3 98.3005 211.5 109.5C216.7 120.7 213.667 127.834 211.5 130C202.945 138.611 191.273 150.358 179.205 162.501M101.687 162.501L140.5 124.066M101.687 162.501L94.9999 169M96.4999 80.0005L140.5 124.066M179.205 162.501L198 181.5C201.5 185.5 202.196 189.909 199.979 195.001M179.205 162.501C165.479 176.311 151.242 190.633 140.5 201.432M174.5 221.5C172.167 223.167 165.6 224.8 158 218C150.4 211.201 143.167 204.121 140.5 201.432M174.5 221.5C176.213 219.838 178.562 217.545 181.15 215.001M174.5 221.5L184.5 231.001M140.5 201.432C137.519 204.428 134.808 207.153 132.45 209.521M199.979 195.001C199.527 196.04 198.882 197.051 198 198C196.936 199.146 195.562 200.576 194 202.172M199.979 195.001L209.5 204.021M194 202.172L203.828 211.501M194 202.172C191.819 204.402 189.271 206.958 186.693 209.521M186.693 209.521L197 219.501M186.693 209.521C184.819 211.385 182.928 213.252 181.15 215.001M181.15 215.001L191 225.001M108 222.473C107.597 222.161 107.262 221.828 107 221.5C105.39 219.942 103.103 217.733 100.5 215.225M108 222.473C110.671 224.535 116.354 225.646 124 218C124.776 217.225 125.722 216.283 127 215.006M108 222.473L97.9999 232.501M100.5 215.225L90.4999 225M100.5 215.225C98.3182 213.122 95.9142 210.81 93.4999 208.493M93.4999 208.493L83.4999 218M93.4999 208.493C90.9686 206.064 88.4259 203.631 86.1165 201.432M86.1165 201.432C84.8236 200.201 83.6038 199.043 82.5 198C81.2638 196.833 80.3637 195.659 79.7358 194.501M86.1165 201.432L75.9999 211M79.7358 194.501C76.7068 188.914 80.015 183.709 82.5 181.5L89.0001 175M79.7358 194.501L69.4999 203.5M94.9999 169H104V176L111.5 177V184.5L120 185.5V193L127 194.501L128 202L134.5 203.5L132.45 209.521M94.9999 169L91.9999 172M132.45 209.521C131.763 210.212 130 212 130 212M91.9999 172L130 212M91.9999 172L89.0001 175M130 212C128.826 213.179 127.841 214.165 127 215.006M89.0001 175L127 215.006" stroke="black" stroke-width="2" stroke-linecap="round" stroke-linejoin="round"/>
</svg>
