<svg width="152" height="165" viewBox="0 0 152 165" fill="none" xmlns="http://www.w3.org/2000/svg">
<path d="M147.5 40.5005C152.7 51.7005 149.667 58.8338 147.5 61.0005C138.945 69.6113 127.273 81.3584 115.205 93.5007L134 112.5C137.5 116.5 138.196 120.909 135.979 126.001C135.527 127.04 134.882 128.051 134 129C132.937 130.146 131.562 131.576 130 133.172C127.819 135.402 125.271 137.958 122.693 140.521C120.819 142.385 118.928 144.252 117.15 146.001C114.562 148.545 112.213 150.838 110.5 152.5C108.167 154.167 101.6 155.8 94 149C86.4 142.201 79.1667 135.121 76.5 132.432C73.5193 135.428 70.8076 138.153 68.4505 140.521C67.7628 141.212 66 143 66 143C64.8257 144.179 63.841 145.165 63 146.006C61.7221 147.283 60.7758 148.225 60 149C52.3541 156.646 46.671 155.535 44 153.473C43.5968 153.161 43.2623 152.828 43 152.5C41.3899 150.942 39.1031 148.733 36.5 146.225C34.3183 144.122 31.9142 141.81 29.5 139.493C26.9686 137.064 24.426 134.631 22.1165 132.432C20.8237 131.201 19.6039 130.043 18.5 129C17.2639 127.833 16.3637 126.659 15.7359 125.501C12.7068 119.914 16.0151 114.709 18.5 112.5L25.0002 106L28 103L31 100L37.687 93.5007C28.458 84.6674 8.8 65.8007 4 61.0005C-0.800002 56.2003 2 49.0006 4 46.0007C6.83333 39.0006 13.7 22.2005 18.5 11.0005C22.7858 1.00043 30 0.999873 35.5 1.0005H121C130.2 1.0005 132.5 7.67907 134 11.0005C136.333 16.1672 142.3 29.3005 147.5 40.5005Z" fill="#EBC8B4"/>
<path d="M121 11.0005L76.5 55.0664M37.687 93.5007C28.458 84.6674 8.8 65.8007 4 61.0005C-0.800002 56.2003 2 49.0006 4 46.0007C6.83333 39.0006 13.7 22.2005 18.5 11.0005C22.7858 1.00043 30 0.999873 35.5 1.0005C60.1667 1.0005 111.8 1.0005 121 1.0005C130.2 1.0005 132.5 7.67907 134 11.0005C136.333 16.1672 142.3 29.3005 147.5 40.5005C152.7 51.7005 149.667 58.8338 147.5 61.0005C138.945 69.6113 127.273 81.3584 115.205 93.5007M37.687 93.5007L76.5 55.0664M37.687 93.5007L31 100M32.5 11.0005L76.5 55.0664M115.205 93.5007L134 112.5C137.5 116.5 138.196 120.909 135.979 126.001M115.205 93.5007C101.479 107.311 87.2425 121.633 76.5 132.432M110.5 152.5C108.167 154.167 101.6 155.8 94 149C86.4 142.201 79.1667 135.121 76.5 132.432M110.5 152.5C112.213 150.838 114.562 148.545 117.15 146.001M110.5 152.5L120.5 162.001M76.5 132.432C73.5193 135.428 70.8076 138.153 68.4505 140.521M135.979 126.001C135.527 127.04 134.882 128.051 134 129C132.937 130.146 131.562 131.576 130 133.172M135.979 126.001L145.5 135.021M130 133.172L139.828 142.501M130 133.172C127.819 135.402 125.271 137.958 122.693 140.521M122.693 140.521L133 150.501M122.693 140.521C120.819 142.385 118.928 144.252 117.15 146.001M117.15 146.001L127 156.001M44 153.473C43.5968 153.161 43.2623 152.828 43 152.5C41.3899 150.942 39.1031 148.733 36.5 146.225M44 153.473C46.671 155.535 52.3541 156.646 60 149C60.7758 148.225 61.7221 147.283 63 146.006M44 153.473L34 163.501M36.5 146.225L26.5 156M36.5 146.225C34.3183 144.122 31.9142 141.81 29.5 139.493M29.5 139.493L19.5 149M29.5 139.493C26.9686 137.064 24.426 134.631 22.1165 132.432M22.1165 132.432C20.8237 131.201 19.6039 130.043 18.5 129C17.2639 127.833 16.3637 126.659 15.7359 125.501M22.1165 132.432L12 142M15.7359 125.501C12.7068 119.914 16.0151 114.709 18.5 112.5L25.0002 106M15.7359 125.501L5.5 134.5M31 100H40V107L47.5 108V115.5L56 116.5V124L63 125.501L64 133L70.5 134.5L68.4505 140.521M31 100L28 103M68.4505 140.521C67.7628 141.212 66 143 66 143M28 103L66 143M28 103L25.0002 106M66 143C64.8257 144.179 63.841 145.165 63 146.006M25.0002 106L63 146.006" stroke="black" stroke-width="2" stroke-linecap="round" stroke-linejoin="round"/>
</svg>
