<svg width="287" height="290" viewBox="0 0 287 290" fill="none" xmlns="http://www.w3.org/2000/svg">
<rect width="287" height="290" transform="matrix(-1 0 0 1 287 0)" fill="white"/>
<path fill-rule="evenodd" clip-rule="evenodd" d="M145.058 52.8907H141.592C141.171 52.5756 140.142 51.7563 139.386 51C123.251 57.5546 108.294 53.7311 102.831 51L100.626 53.2059L98.4197 53.521L94.9533 53.8361L91.1718 54.4664L87.3904 55.7268L83.6089 58.2478L78.2518 62.9747L73.2098 68.962L68.7981 74.9493L65.0166 79.3611L63.1259 82.5123L60.2898 87.8694L55.563 98.8987L52.4117 111.188L50.521 130.096L49.2605 142.071L48 149.949L48.6302 151.839L50.521 152.785L59.0293 154.36L61.5503 154.045L63.1259 151.524L65.0166 145.852L71.3191 127.26L72.1531 125.547L85.4996 95.7475V132.617V149.949L86.7601 153.415L88.0206 154.991V162.869H153.881V154.991L154.827 154.675L156.402 152.785L157.033 149.949V147.428V131.987L163.65 128.52L170.898 124.739L177.831 120.642L182.558 118.121L185.079 115.6L186.339 111.504V105.201V94.8021L186.654 88.4996L185.709 83.4577L182.873 79.9913L172.474 69.9074L160.499 58.8781L156.402 55.7268L150.415 53.521L145.058 52.8907ZM157.663 95.1172V109.928L165.856 102.365L157.663 95.1172Z" fill="#DAB199"/>
<path d="M100.646 53.0887C97.495 52.9177 90.0581 53.332 85.5203 56.3572M100.646 53.0887C101.929 54.5459 103.905 55.7228 106.318 56.6253C108.537 57.4551 111.125 58.053 113.881 58.4236C116.317 58.7511 118.884 58.9012 121.444 58.8772C124.13 58.8521 126.809 58.6354 129.322 58.2308C132.091 57.7851 134.658 57.1114 136.81 56.2147C138.838 55.3695 140.499 54.3261 141.612 53.0887M100.646 53.0887L102.831 51C111.025 55.7268 127.726 56.6253 139.386 51C140.331 51.9454 141.08 52.7076 141.612 53.0887M141.612 53.0887C148.671 51.9865 155.268 54.8085 157.683 56.3572M85.5203 56.3572V95.1173M85.5203 56.3572C73.2204 67.0714 54.3541 89.7603 52.2649 112.764L49.1014 141.98M85.5203 95.1173V109.467V131.698V149.318C85.6038 150.999 86.3508 154.36 88.6716 154.36M85.5203 95.1173L72.9053 123.794L65.0776 145.656M88.6716 154.36V162.554H94.3438M88.6716 154.36C89.355 154.36 91.4686 154.36 94.3438 154.36M157.683 56.3572C162.221 59.3824 177.431 74.6343 184.469 81.8822C185.309 82.7225 186.99 85.4116 186.99 89.4451V108.983C187.095 111.189 186.423 116.105 182.893 118.121C180.232 119.642 167.848 126.275 157.683 131.698M157.683 56.3572V95.1173M165.702 102.68C169.991 99.0471 174.074 95.5839 177.221 92.9115M165.702 102.68C163.051 104.926 160.32 107.238 157.683 109.467M165.702 102.68L157.683 95.1173M157.683 109.467V95.1173M157.683 109.467C153.112 113.332 148.821 116.952 145.709 119.561M154.532 133.378C152.43 134.498 150.497 135.528 148.86 136.398C147.81 137.134 145.331 138.037 143.818 135.768C143.503 135.295 143.164 134.759 142.817 134.193M154.532 133.378L151.631 128.836M154.532 133.378C155.548 132.837 156.603 132.274 157.683 131.698M145.709 119.561C143.249 121.624 141.525 123.056 140.982 123.478C138.713 125.243 138.986 127.365 139.406 128.205C139.622 128.61 139.918 129.155 140.264 129.781M145.709 119.561L148.67 124.198M151.631 128.836L148.67 124.198M151.631 128.836L142.817 134.193M142.817 134.193C141.927 132.739 140.986 131.085 140.264 129.781M148.67 124.198L140.264 129.781M157.683 131.698V149.318C157.6 150.999 156.853 154.36 154.532 154.36M154.532 154.36V162.554H149.175M154.532 154.36H149.175M94.3438 154.36V162.554M94.3438 154.36C96.1201 154.36 98.1871 154.36 100.387 154.36M94.3438 162.554H100.387M100.387 154.36V162.554M100.387 154.36C102.298 154.36 104.31 154.36 106.318 154.36M100.387 162.554H106.318M106.318 154.36V162.554M106.318 154.36C108.69 154.36 111.058 154.36 113.251 154.36M106.318 162.554H113.251M113.251 154.36C115.352 154.36 117.293 154.36 118.923 154.36H120.499M113.251 154.36V162.554M113.251 162.554H118.923H120.499M120.499 154.36V162.554M120.499 154.36H126.801M120.499 162.554H126.801M126.801 154.36V162.554M126.801 154.36H132.474M126.801 162.554H132.474M132.474 154.36V162.554M132.474 154.36H138.461M132.474 162.554H138.461M138.461 154.36V162.554M138.461 154.36H143.818M138.461 162.554H143.818M143.818 154.36V162.554M143.818 154.36H149.175M143.818 162.554H149.175M149.175 154.36V162.554M49.1014 141.98C48.7513 144.335 48.4304 146.502 48.1593 148.336C47.819 149.573 47.7998 152.211 50.4447 152.875C50.9961 153.013 51.6149 153.153 52.2649 153.289M49.1014 141.98L54.3541 143.188M65.0776 145.656C63.9598 148.665 63.1895 150.769 62.9736 151.423C62.0725 154.152 59.982 154.607 59.0494 154.493C58.5962 154.426 57.9831 154.33 57.2773 154.214M65.0776 145.656L59.7158 144.422M54.3541 143.188L59.7158 144.422M54.3541 143.188L52.2649 153.289M52.2649 153.289C53.9326 153.64 55.8062 153.971 57.2773 154.214M59.7158 144.422L57.2773 154.214" stroke="black" stroke-width="2" stroke-linecap="round" stroke-linejoin="round"/>
<path d="M165.257 108.5V102C165.257 100.667 166.358 98 170.757 98H178.257H186.257H194.257H201.757H209.757H217.257H224.757H226.257C227.591 98 230.257 98.6 230.257 101V108.5C237.458 124.1 238.591 141.333 238.257 148C238.731 160.318 238.756 229.648 235.354 250.5H226.306H217.257H208.949C207.464 235.738 201.586 175.171 198.257 144L187.073 250.5H185.257H179.257H169.574H159.891C158.332 235.35 153.891 172.593 155.257 148C156.457 126.4 162.424 112.667 165.257 108.5Z" fill="#DAB199"/>
<path d="M165.257 108.5V102C165.257 100.667 166.357 98 170.757 98M165.257 108.5C162.424 112.667 156.457 126.4 155.257 148C153.891 172.593 158.332 235.35 159.891 250.5H169.574H179.257H187.073M165.257 108.5H170.757M170.757 98V108.5M170.757 98C171.795 98 174.505 98 178.257 98M230.257 108.5C230.257 107 230.257 103.4 230.257 101C230.257 98.6 227.591 98 226.257 98C225.772 98 225.272 98 224.757 98M230.257 108.5C237.458 124.1 238.591 141.333 238.257 148C238.731 160.318 238.756 229.648 235.354 250.5H226.306H217.257H208.949C207.464 235.738 201.586 175.171 198.257 144L187.073 250.5M230.257 108.5H224.757M185.257 250.5H187.073M170.757 108.5H178.257M178.257 98V108.5M178.257 98C180.575 98 183.291 98 186.257 98M178.257 108.5H186.257M186.257 98V108.5M186.257 98C188.774 98 191.471 98 194.257 98M186.257 108.5H194.257M194.257 98V108.5M194.257 98C196.708 98 199.229 98 201.757 98M194.257 108.5H201.757M201.757 98V108.5M201.757 98C204.439 98 207.13 98 209.757 98M201.757 108.5H209.757M209.757 98V108.5M209.757 98C212.343 98 214.866 98 217.257 98M209.757 108.5H217.257M217.257 98V108.5M217.257 98C219.959 98 222.493 98 224.757 98M217.257 108.5H224.757M224.757 98V108.5" stroke="black" stroke-width="2" stroke-linecap="round" stroke-linejoin="round"/>
</svg>
