<svg width="193" height="202" viewBox="0 0 193 202" fill="none" xmlns="http://www.w3.org/2000/svg">
<path fill-rule="evenodd" clip-rule="evenodd" d="M98.0579 2.89074H94.5915C94.1714 2.57561 93.142 1.7563 92.3857 1C76.2514 7.55456 61.2935 3.73107 55.8314 1L53.6255 3.20586L51.4197 3.52098L47.9533 3.83611L44.1718 4.46635L40.3904 5.72684L36.6089 8.24783L31.2518 12.9747L26.2098 18.962L21.7981 24.9493L18.0166 29.3611L16.1259 32.5123L13.2898 37.8694L8.56295 48.8987L5.41172 61.1885L3.52098 80.0959L2.26049 92.0705L1 99.9486L1.63025 101.839L3.52098 102.785L12.0293 104.36L14.5503 104.045L16.1259 101.524L18.0166 95.852L24.3191 77.2598L25.1531 75.5469L38.4996 45.7475V82.6169V99.9486L39.7601 103.415L41.0206 104.991V112.869H106.881V104.991L107.827 104.675L109.402 102.785L110.033 99.9486V97.4276V81.9866L116.65 78.5203L123.898 74.7388L130.831 70.6422L135.558 68.1212L138.079 65.6002L139.339 61.5036V55.2012V44.8021L139.654 38.4996L138.709 33.4577L135.873 29.9913L125.474 19.9074L113.499 8.87807L109.402 5.72684L103.415 3.52098L98.0579 2.89074ZM110.663 45.1172V59.928L118.856 52.365L110.663 45.1172Z" fill="#DAB199"/>
<path d="M53.6462 3.08874C50.495 2.91774 43.0581 3.33203 38.5203 6.35721M53.6462 3.08874C54.9285 4.54591 56.9052 5.72278 59.3184 6.62532C61.5371 7.45507 64.1248 8.05296 66.8814 8.42363C69.3166 8.75109 71.8836 8.90123 74.4444 8.87725C77.1303 8.8521 79.8095 8.63538 82.3224 8.23081C85.0909 7.78511 87.6576 7.11141 89.8098 6.21466C91.8384 5.36945 93.4986 4.3261 94.6122 3.08874M53.6462 3.08874L55.8314 1C64.0246 5.72684 80.7261 6.62532 92.3857 1.00001C93.331 1.94538 94.0801 2.70762 94.6122 3.08874M94.6122 3.08874C101.671 1.98654 108.268 4.80847 110.683 6.35721M38.5203 6.35721V45.1173M38.5203 6.35721C26.2204 17.0714 7.35406 39.7603 5.2649 62.7642L2.10143 91.9795M38.5203 45.1173V59.4669V81.6978V99.3185C38.6038 100.999 39.3508 104.36 41.6716 104.36M38.5203 45.1173L25.9053 73.7935L18.0776 95.6558M41.6716 104.36V112.554H47.3438M41.6716 104.36C42.355 104.36 44.4686 104.36 47.3438 104.36M110.683 6.35721C115.221 9.38239 130.431 24.6343 137.469 31.8822C138.309 32.7225 139.99 35.4116 139.99 39.4451V58.9828C140.095 61.1886 139.423 66.1045 135.893 68.1213C133.232 69.6421 120.848 76.2751 110.683 81.6978M110.683 6.35721V45.1173M118.702 52.6803C122.991 49.0471 127.074 45.5839 130.221 42.9115M118.702 52.6803C116.051 54.9264 113.32 57.2375 110.683 59.4669M118.702 52.6803L110.683 45.1173M110.683 59.4669V45.1173M110.683 59.4669C106.112 63.3323 101.821 66.952 98.7088 69.5615M107.532 83.3781C105.43 84.4984 103.497 85.5275 101.86 86.3984C100.81 87.1337 98.3307 88.0371 96.8181 85.7682C96.5027 85.2952 96.1636 84.7591 95.8167 84.1926M107.532 83.3781L104.631 78.8355M107.532 83.3781C108.548 82.8367 109.603 82.2741 110.683 81.6978M98.7088 69.5615C96.2488 71.6242 94.5254 73.0557 93.982 73.4784C91.7131 75.2431 91.9862 77.3649 92.4064 78.2053C92.622 78.6096 92.9179 79.155 93.2642 79.7809M98.7088 69.5615L101.67 74.1985M104.631 78.8355L101.67 74.1985M104.631 78.8355L95.8167 84.1926M95.8167 84.1926C94.9269 82.7392 93.986 81.0854 93.2642 79.7809M101.67 74.1985L93.2642 79.7809M110.683 81.6978V99.3185C110.6 100.999 109.853 104.36 107.532 104.36M107.532 104.36V112.554H102.175M107.532 104.36H102.175M47.3438 104.36V112.554M47.3438 104.36C49.1201 104.36 51.1871 104.36 53.3871 104.36M47.3438 112.554H53.3871M53.3871 104.36V112.554M53.3871 104.36C55.2983 104.36 57.3099 104.36 59.3184 104.36M53.3871 112.554H59.3184M59.3184 104.36V112.554M59.3184 104.36C61.6905 104.36 64.0582 104.36 66.2512 104.36M59.3184 112.554H66.2512M66.2512 104.36C68.3522 104.36 70.2929 104.36 71.9234 104.36H73.499M66.2512 104.36V112.554M66.2512 112.554H71.9234H73.499M73.499 104.36V112.554M73.499 104.36H79.8014M73.499 112.554H79.8014M79.8014 104.36V112.554M79.8014 104.36H85.4737M79.8014 112.554H85.4737M85.4737 104.36V112.554M85.4737 104.36H91.461M85.4737 112.554H91.461M91.461 104.36V112.554M91.461 104.36H96.8181M91.461 112.554H96.8181M96.8181 104.36V112.554M96.8181 104.36H102.175M96.8181 112.554H102.175M102.175 104.36V112.554M2.10143 91.9795C1.75133 94.3354 1.43038 96.5017 1.15929 98.3363C0.819048 99.5725 0.799786 102.211 3.44466 102.875C3.99609 103.013 4.61485 103.153 5.2649 103.289M2.10143 91.9795L7.35406 93.1882M18.0776 95.6558C16.9598 98.6653 16.1895 100.769 15.9736 101.423C15.0725 104.152 12.982 104.607 12.0494 104.493C11.5962 104.426 10.9831 104.33 10.2773 104.214M18.0776 95.6558L12.7158 94.422M7.35406 93.1882L12.7158 94.422M7.35406 93.1882L5.2649 103.289M5.2649 103.289C6.93261 103.64 8.80625 103.971 10.2773 104.214M12.7158 94.422L10.2773 104.214" stroke="black" stroke-width="2" stroke-linecap="round" stroke-linejoin="round"/>
<path d="M118.257 58.5V52C118.257 50.6667 119.358 48 123.757 48H131.257H139.257H147.257H154.757H162.757H170.257H177.757H179.257C180.591 48 183.257 48.6 183.257 51V58.5C190.458 74.1 191.591 91.3333 191.257 98C191.731 110.318 191.756 179.648 188.354 200.5H179.306H170.257H161.949C160.464 185.738 154.586 125.171 151.257 94L140.073 200.5H138.257H132.257H122.574H112.891C111.332 185.35 106.891 122.593 108.257 98C109.457 76.4 115.424 62.6667 118.257 58.5Z" fill="#DAB199"/>
<path d="M118.257 58.5V52C118.257 50.6667 119.357 48 123.757 48M118.257 58.5C115.424 62.6667 109.457 76.4 108.257 98C106.891 122.593 111.332 185.35 112.891 200.5H122.574H132.257H140.073M118.257 58.5H123.757M123.757 48V58.5M123.757 48C124.795 48 127.505 48 131.257 48M183.257 58.5C183.257 57 183.257 53.4 183.257 51C183.257 48.6 180.591 48 179.257 48C178.772 48 178.272 48 177.757 48M183.257 58.5C190.458 74.1 191.591 91.3333 191.257 98C191.731 110.318 191.756 179.648 188.354 200.5H179.306H170.257H161.949C160.464 185.738 154.586 125.171 151.257 94L140.073 200.5M183.257 58.5H177.757M138.257 200.5H140.073M123.757 58.5H131.257M131.257 48V58.5M131.257 48C133.575 48 136.291 48 139.257 48M131.257 58.5H139.257M139.257 48V58.5M139.257 48C141.774 48 144.471 48 147.257 48M139.257 58.5H147.257M147.257 48V58.5M147.257 48C149.708 48 152.229 48 154.757 48M147.257 58.5H154.757M154.757 48V58.5M154.757 48C157.439 48 160.13 48 162.757 48M154.757 58.5H162.757M162.757 48V58.5M162.757 48C165.343 48 167.866 48 170.257 48M162.757 58.5H170.257M170.257 48V58.5M170.257 48C172.959 48 175.493 48 177.757 48M170.257 58.5H177.757M177.757 48V58.5" stroke="black" stroke-width="2" stroke-linecap="round" stroke-linejoin="round"/>
</svg>
