<svg width="143" height="71" viewBox="0 0 143 71" fill="none" xmlns="http://www.w3.org/2000/svg">
<path d="M103.745 1L121.742 7.56248L117.86 13.3958C116.096 12.3021 113.714 11.2083 110.803 10.1146C91.3946 2.82291 91.3947 20.6875 99.8637 22.1458L111.509 21.4166C118.213 20.6875 124.424 19.9583 129.505 21.4166C152.089 31.2603 136.685 50.2634 132.328 53.8645C127.035 58.2394 122.448 60.7915 118.566 62.6144L108.686 58.758C103.863 61.6233 92.4533 66.4061 85.3958 62.6144C76.5739 57.8749 81.867 49.854 88.2188 48.0311C91.3799 47.1239 95.6153 47.4865 99.1579 48.1535C101.31 48.5587 103.206 49.0761 104.451 49.4895L125.624 56.0519C128.211 54.1075 133.74 48.9061 135.151 43.6561C137.692 29.9478 124.683 27.493 117.86 27.9791L102.334 29.4374C98.5698 30.1666 90.7595 29.802 89.6303 22.5104C88.5011 15.2187 98.5698 5.13193 103.745 1Z" fill="black"/>
<path d="M125.624 56.0519C128.211 54.1075 133.74 48.9061 135.151 43.6561C137.692 29.9478 124.683 27.493 117.86 27.9791L102.334 29.4374C98.5698 30.1666 90.7595 29.802 89.6303 22.5104C88.5011 15.2187 98.5698 5.13193 103.745 1L121.742 7.56248L117.86 13.3958C116.096 12.3021 113.714 11.2083 110.803 10.1146C91.3946 2.82291 91.3947 20.6875 99.8637 22.1458L111.509 21.4166C118.213 20.6875 124.424 19.9583 129.505 21.4166C152.089 31.2603 136.685 50.2634 132.328 53.8645C127.035 58.2394 122.448 60.7915 118.566 62.6144M125.624 56.0519L122.448 57.8749L118.566 62.6144M125.624 56.0519L104.451 49.4895C103.206 49.0761 101.31 48.5587 99.1579 48.1535C95.6153 47.4865 91.3799 47.1239 88.2188 48.0311C81.867 49.854 76.5739 57.8749 85.3958 62.6144C92.4533 66.4061 103.863 61.6233 108.686 58.758M118.566 62.6144L108.686 58.758M105.51 57.5184L102.687 56.4165C99.6284 55.5658 92.998 54.1532 91.0418 53.8645C86.1015 53.1353 79.3969 59.9478 90.336 61.8853C93.8648 62.5103 102.687 59.6978 105.51 57.5184ZM105.51 57.5184L108.686 58.758" stroke="black"/>
<path d="M125.624 56.0519C128.211 54.1075 133.74 48.9061 135.151 43.6561C137.692 29.9478 124.683 27.493 117.86 27.9791L102.334 29.4374C98.5698 30.1666 90.7595 29.802 89.6303 22.5104C88.5011 15.2187 98.5698 5.13193 103.745 1L121.742 7.56248L117.86 13.3958C116.096 12.3021 113.714 11.2083 110.803 10.1146C91.3946 2.82291 91.3947 20.6875 99.8637 22.1458L111.509 21.4166C118.213 20.6875 124.424 19.9583 129.505 21.4166C152.089 31.2603 136.685 50.2634 132.328 53.8645C127.035 58.2394 122.448 60.7915 118.566 62.6144M125.624 56.0519L122.448 57.8749L118.566 62.6144M125.624 56.0519L104.451 49.4895C103.206 49.0761 101.31 48.5587 99.1579 48.1535C95.6153 47.4865 91.3799 47.1239 88.2188 48.0311C81.867 49.854 76.5739 57.8749 85.3958 62.6144C92.4533 66.4061 103.863 61.6233 108.686 58.758M118.566 62.6144L108.686 58.758M105.51 57.5184L102.687 56.4165C99.6284 55.5658 92.998 54.1532 91.0418 53.8645C86.1015 53.1353 79.3969 59.9478 90.336 61.8853C93.8648 62.5103 102.687 59.6978 105.51 57.5184ZM105.51 57.5184L108.686 58.758" stroke="black" stroke-opacity="0.2"/>
<path d="M89.9832 23.9693C86.1015 25.4275 81.129 39.8151 105.863 34.5421C106.09 34.4937 106.315 34.4465 106.539 34.4004L123.506 2.09424L124.918 3.18799L108.584 34.0039C128.659 30.3604 134.825 36.7939 128.447 46.5734C125.638 50.8798 119.625 53.379 117.155 54.2297L115.39 52.7713C117.743 51.6776 122.659 48.9068 123.506 46.5734C124.565 43.6568 127.035 38.9171 104.804 41.8337C104.671 41.8512 104.539 41.8681 104.407 41.8847L100.569 49.1254H98.805L102.495 42.099C72.3093 45.052 82.0455 22.8756 89.2774 22.8756C90.6889 22.0006 90.8065 22.9971 90.6889 23.6048L89.9832 23.9693Z" fill="black" stroke="black"/>
<path d="M91.0418 53.8643C94.9234 53.8642 99.6284 55.5656 102.687 56.4163L105.51 57.5182C102.687 59.6976 95.9161 62.8459 90.336 61.8851C81.867 60.4267 86.0514 53.8644 91.0418 53.8643Z" fill="white"/>
<path d="M91.0418 53.8643C94.9234 53.8642 99.6284 55.5656 102.687 56.4163L105.51 57.5182C102.687 59.6976 95.9161 62.8459 90.336 61.8851C81.867 60.4267 86.0514 53.8644 91.0418 53.8643Z" stroke="black"/>
<path d="M91.0418 53.8643C94.9234 53.8642 99.6284 55.5656 102.687 56.4163L105.51 57.5182C102.687 59.6976 95.9161 62.8459 90.336 61.8851C81.867 60.4267 86.0514 53.8644 91.0418 53.8643Z" stroke="black" stroke-opacity="0.2"/>
<path d="M2.2523 71H0.487926C-0.923575 67.7189 0.487926 60.4269 7.8983 60.0624C13.8266 59.7707 15.7792 55.8089 16.0144 53.8645V47.6665C16.0144 34.9062 5.42818 35.6353 2.95805 40.3749C2.95805 40.3749 2.39345 40.302 1.54655 40.0103C2.95805 32.7187 9.66268 31.868 12.8386 32.3541V25.7916C13.8972 10.8437 34.3639 3.18749 38.5984 1C43.9621 3.62499 44.8326 9.14234 44.5973 11.5729L59.4181 1L68.24 8.29165L71.7687 4.64582L73.1802 6.10415C73.0626 6.22568 72.4745 6.90624 71.063 8.65623C69.6515 10.4062 69.2986 12.7882 69.2986 13.7604V52.0415C69.2986 56.7082 71.8863 56.1735 73.1802 55.3228L74.5917 53.8645L75.6503 55.3228C74.0036 56.9026 69.9338 60.7186 66.8285 63.3436C62.0294 61.8853 61.3001 56.1735 61.5353 53.4999L61.1825 11.5729L55.1836 6.46874L44.5973 13.7604V28.3437H57.3008L56.948 28.7083L52.3606 34.5416H44.5973V49.4895C44.5973 54.229 46.7146 55.3228 48.479 55.3228C49.8905 55.3228 51.6548 53.1353 52.3606 52.0415L55.1836 49.4895L56.5951 50.5832C53.184 53.8645 45.5854 61.0103 42.4801 63.3436C40.7863 59.2603 36.3636 56.295 34.3639 55.3228V53.4999C36.6223 53.4999 36.9517 50.5832 36.8341 49.1249V34.9062H25.8949V32.7187L28.7179 28.3437H36.8341V15.9479C36.8341 12.6666 36.8341 9.02081 32.2467 6.46874C27.4476 7.92707 25.7773 13.3958 25.5421 15.9479V28.3437C25.5421 34.2985 25.4009 48.3957 24.8363 57.1457C24.1306 68.0832 14.6029 68.4479 7.8983 66.9896C2.5346 65.8229 1.89943 69.1771 2.2523 71Z" fill="black"/>
<path d="M23.4248 19.9578C23.4248 15.2912 24.6011 11.937 25.1892 10.8433C21.237 13.4683 20.0137 18.0134 19.8961 19.9578V48.0307C19.8961 57.8744 16.7202 58.6036 13.8972 60.0619C21.5193 62.1035 23.4248 56.2945 23.4248 53.1348V19.9578Z" fill="white" stroke="black"/>
<path d="M50.9491 54.2289V9.02067L52.7134 7.19775V52.406L50.9491 54.2289Z" fill="black"/>
</svg>
