<svg width="247" height="29" viewBox="0 0 247 29" fill="none" xmlns="http://www.w3.org/2000/svg">
<path d="M28.12 0.439998C31.24 0.439998 33.72 0.826665 35.56 1.6C37.4267 2.37333 38.7733 3.53333 39.6 5.08C40.4267 6.62667 40.84 8.62667 40.84 11.08C40.84 13.48 40.4267 15.4533 39.6 17C38.7733 18.52 37.4267 19.6667 35.56 20.44C33.72 21.1867 31.24 21.56 28.12 21.56H13.4V29H0.28V0.439998H28.12ZM23.32 13.88C24.36 13.88 25.1467 13.6667 25.68 13.24C26.2133 12.7867 26.48 12.12 26.48 11.24C26.48 9.48 25.4267 8.6 23.32 8.6H13.4V13.88H23.32ZM69.5447 25.68H53.8647L52.2647 29H37.9847L52.8247 0.439998H70.7047L85.4247 29H71.1847L69.5447 25.68ZM65.8647 18.2L61.8247 10.04H61.5847L57.5847 18.2H65.8647ZM114.031 0.439998C117.151 0.439998 119.631 0.826665 121.471 1.6C123.338 2.37333 124.684 3.53333 125.511 5.08C126.338 6.62667 126.751 8.62667 126.751 11.08C126.751 13.48 126.338 15.4533 125.511 17C124.684 18.52 123.338 19.6667 121.471 20.44C119.631 21.1867 117.151 21.56 114.031 21.56H99.3109V29H86.1909V0.439998H114.031ZM109.231 13.88C110.271 13.88 111.058 13.6667 111.591 13.24C112.124 12.7867 112.391 12.12 112.391 11.24C112.391 9.48 111.338 8.6 109.231 8.6H99.3109V13.88H109.231ZM154.656 25.68H138.976L137.376 29H123.096L137.936 0.439998H155.816L170.536 29H156.296L154.656 25.68ZM150.976 18.2L146.936 10.04H146.696L142.696 18.2H150.976ZM191.022 20.96V29H177.862V20.96L162.102 0.439998H177.902L184.462 10.12L190.942 0.439998H206.742L191.022 20.96ZM231.065 25.68H215.385L213.785 29H199.505L214.345 0.439998H232.225L246.945 29H232.705L231.065 25.68ZM227.385 18.2L223.345 10.04H223.105L219.105 18.2H227.385Z" fill="black"/>
</svg>
