<svg width="151" height="83" viewBox="0 0 151 83" fill="none" xmlns="http://www.w3.org/2000/svg">
<path fill-rule="evenodd" clip-rule="evenodd" d="M18.6779 41.2777C14.4517 47.0658 12.945 60.4059 40.7277 67.4618C75.456 76.2817 45.6549 40.8966 16.7485 28.0491C-17.9797 12.614 8.75562 -9.43558 29.9784 4.34443C45.1376 14.1874 46.8832 21.6167 45.6888 25.016C45.0106 26.9463 40.5623 28.103 36.5933 20.6061C32.6244 13.1092 23.3592 7.85468 18.6779 7.65185C12.3387 7.37718 -2.48983 11.1247 24.1903 25.016C34.9947 30.0874 38.7983 33.3766 39.3495 34.3872H54.2331L49.5475 25.016C49.5475 22.5354 50.7051 19.0626 55.3356 25.016C59.966 30.9694 61.6749 33.7441 61.9505 34.3872L72.1485 35.214C71.5972 32.9172 70.8255 27.7722 72.1485 25.5672C73.8022 22.811 76.8341 20.8817 79.8659 25.5672C80.8499 27.088 83.3728 31.3671 86.3884 36.482L86.3887 36.4824L86.3887 36.4825C92.6645 47.1269 101.074 61.3908 102.191 61.9493C103.514 61.9493 107.52 61.7656 109.357 61.6737C106.693 59.1931 100.262 52.0821 95.8519 43.4827C91.442 34.8833 87.3995 27.0372 85.9296 24.1891C85.1946 22.3517 84.9373 18.9523 89.7883 20.0548C93.3265 20.859 94.894 21.5693 96.1335 22.131C97.0182 22.5319 97.7359 22.8571 98.8838 23.0867C101.089 23.5276 105.499 24.0054 107.428 24.1891C106.509 22.2598 105.885 18.7318 110.735 20.0548C113.251 20.7409 114.771 21.2847 116.002 21.7255C117.74 22.3472 118.904 22.7641 121.485 23.0867C125.013 23.5276 132.693 24.0054 136.093 24.1891C135.174 25.3835 131.793 27.7171 125.619 27.4966C119.445 27.2761 116.064 27.0372 115.145 26.9454L117.902 31.9065L130.856 32.7334C128.927 34.7546 124.351 38.5766 121.485 37.6946C121.821 38.367 122.214 39.0622 122.68 39.8867L122.681 39.8872L122.681 39.8875L122.681 39.8879L122.681 39.8884C124.509 43.1196 127.46 48.3372 132.51 61.9493C137.746 62.5015 143.535 63.604 146.291 64.7055C152.049 67.0071 153.732 74.9044 144.361 71.3214C142.199 70.4945 134.163 68.4938 127.824 67.7374C111.654 65.808 69.9986 66.1387 32.7346 82.8965C34.7191 80.2506 42.3814 75.5466 45.9644 73.5254C38.6145 73.066 22.4815 69.6667 16.7485 59.7443C11.0156 49.822 15.6461 43.2989 18.6779 41.2777ZM63.0531 68.0139C64.4312 64.6146 63.3838 54.2329 48.1695 39.9005C50.3745 39.4596 55.3357 39.3493 57.5406 39.3493C62.6856 47.1586 73.6369 63.163 76.2829 64.7065C73.1959 64.7065 66.1768 66.9115 63.0531 68.0139ZM77.1097 64.4308C73.5818 51.6419 67.0036 42.0135 64.1555 38.798C66.0849 38.798 69.1167 37.6955 72.1486 36.593C75.456 54.2328 81.6116 61.9502 84.2759 63.6039C83.5409 63.6958 81.0787 63.9898 77.1097 64.4308ZM80.4172 37.4199C78.6716 33.6531 75.5663 28.2141 77.1097 36.593C78.6532 44.9719 83.449 54.4165 85.654 58.0915C87.2159 60.3883 89.9537 63.1629 88.4102 55.8865C87.7475 52.7621 84.0622 45.0602 81.7569 40.2423C81.215 39.1099 80.7494 38.1368 80.4172 37.4199ZM92.269 53.1304C93.9227 58.6429 93.0958 62.0422 92.269 62.7772C94.2902 62.3178 98.057 61.9503 101.089 62.226C99.9864 61.3991 98.3326 59.5386 96.6789 57.6782C95.0252 55.8178 93.3714 53.9573 92.269 53.1304ZM110.736 61.6746C108.531 55.8866 103.569 44.0349 99.7107 37.6956C102.577 37.6956 107.612 34.8475 109.633 33.2856L96.4033 31.9075L93.6471 26.9463C97.5058 27.7732 104.672 28.3244 108.806 27.4976C108.957 27.7832 109.136 28.127 109.343 28.5226C112.93 35.3796 124.647 57.7808 131.683 61.9502C128.651 61.1234 116.156 61.399 110.736 61.6746Z" fill="black"/>
</svg>
