<svg width="106" height="44" viewBox="0 0 106 44" fill="none" xmlns="http://www.w3.org/2000/svg">
<rect width="106" height="44" fill="black"/>
<path d="M31.8348 11V32H24.2748V36.5H21.3948V32H13.8348V11H16.8348V29.12H28.8348V11H31.8348ZM40.243 13.82V20.09H50.443V22.91H40.243V29.18H51.343V32H37.243V11H51.343V13.82H40.243ZM69.8935 32L63.3235 23.42L56.7835 32H53.1535L61.4635 21.32L53.5135 11H57.2035L63.3835 19.04L69.5035 11H73.1635L65.2435 21.17L73.5535 32H69.8935ZM90.8994 32L84.3294 23.42L77.7894 32H74.1594L82.4694 21.32L74.5194 11H78.2094L84.3894 19.04L90.5094 11H94.1694L86.2494 21.17L94.5594 32H90.8994Z" fill="white"/>
</svg>
