<svg width="25" height="24" viewBox="0 0 25 24" fill="none" xmlns="http://www.w3.org/2000/svg">
<path fill-rule="evenodd" clip-rule="evenodd" d="M25 0H0V24H25V0ZM7.66992 4.73086H17.4321C18.3565 4.73193 19.2426 5.08822 19.8962 5.72156C20.5498 6.3549 20.9175 7.2136 20.9186 8.10928V16.2175C20.9175 17.1132 20.5498 17.9719 19.8962 18.6052C19.2426 19.2385 18.3565 19.5948 17.4321 19.5959H7.66992C6.74558 19.5948 5.85942 19.2385 5.20582 18.6052C4.55221 17.9719 4.18453 17.1132 4.18342 16.2175V8.10928C4.18453 7.2136 4.55221 6.3549 5.20582 5.72156C5.85942 5.08822 6.74558 4.73193 7.66992 4.73086ZM17.4321 6.08223H7.66992C7.25239 6.08302 6.84465 6.20487 6.49919 6.4321C6.15372 6.65932 5.88633 6.98153 5.73143 7.35724L11.0714 12.5323C11.4643 12.9116 11.9964 13.1245 12.551 13.1245C13.1057 13.1245 13.6377 12.9116 14.0307 12.5323L19.3706 7.35724C19.2157 6.98153 18.9483 6.65932 18.6029 6.4321C18.2574 6.20487 17.8497 6.08302 17.4321 6.08223ZM6.19073 17.6508C6.58303 18.031 7.11512 18.2445 7.66992 18.2445H17.4321C17.9869 18.2445 18.519 18.031 18.9113 17.6508C19.3036 17.2707 19.524 16.7551 19.524 16.2175V9.1228L15.0167 13.4877C14.3622 14.1203 13.4755 14.4756 12.551 14.4756C11.6266 14.4756 10.7399 14.1203 10.0854 13.4877L5.57802 9.1228V16.2175C5.57802 16.7551 5.79842 17.2707 6.19073 17.6508Z" fill="white"/>
</svg>
