<svg width="59" height="25" viewBox="0 0 59 25" fill="none" xmlns="http://www.w3.org/2000/svg">
<rect width="59" height="24" fill="white"/>
<path d="M18.7119 5.8V17H14.6799V19.4H13.1439V17H9.11188V5.8H10.7119V15.464H17.1119V5.8H18.7119ZM23.1963 7.304V10.648H28.6363V12.152H23.1963V15.496H29.1163V17H21.5963V5.8H29.1163V7.304H23.1963ZM39.0099 17L35.5059 12.424L32.0179 17H30.0819L34.5139 11.304L30.2739 5.8H32.2419L35.5379 10.088L38.8019 5.8H40.7539L36.5299 11.224L40.9619 17H39.0099ZM50.213 17L46.709 12.424L43.221 17H41.285L45.717 11.304L41.477 5.8H43.445L46.741 10.088L50.005 5.8H51.957L47.733 11.224L52.165 17H50.213Z" fill="black"/>
</svg>
