<svg width="25" height="24" viewBox="0 0 25 24" fill="none" xmlns="http://www.w3.org/2000/svg">
<path d="M17.3478 7.89416L8.17782 13.354C8.01638 13.4501 7.94292 13.6389 7.99926 13.8131L9.22932 17.6181C9.25516 17.698 9.3765 17.687 9.38626 17.6038L9.68523 15.0524C9.69675 14.9538 9.74602 14.8629 9.82342 14.7972L17.5887 8.20503C17.7747 8.04725 17.5587 7.76856 17.3478 7.89416Z" fill="white"/>
<path d="M0 0V24H25V0H0ZM20.8392 6.23621L17.9849 19.3366C17.8509 19.9513 17.0999 20.2274 16.5725 19.8558L12.263 16.819L10.0666 18.9719C9.6811 19.3497 9.01519 19.1968 8.84957 18.6923L7.26415 13.8629L3.01598 12.6586C2.45863 12.5006 2.42577 11.7546 2.96727 11.552L19.6851 5.29786C20.3214 5.05983 20.979 5.59446 20.8392 6.23621Z" fill="white"/>
</svg>
