<svg width="25" height="24" viewBox="0 0 25 24" fill="none" xmlns="http://www.w3.org/2000/svg">
<path d="M16.2413 5.54979C13.7585 5.09636 11.2405 5.09636 8.75716 5.54979C7.671 5.78203 6.30451 7.03909 6.03736 8.05021C5.59302 10.0066 5.59302 11.9899 6.03736 13.9463C6.30451 14.9574 7.671 16.2145 8.75716 16.4467C8.75744 16.4468 8.75771 16.4468 8.75799 16.4469C8.80637 16.456 8.84164 16.4962 8.84164 16.5436V19.4096C8.84164 19.5528 9.02377 19.6234 9.12745 19.5197L10.5455 18.1225C10.5455 18.1225 11.6755 17.0089 11.8787 16.8087C11.8985 16.7891 11.926 16.7785 11.9544 16.7793C13.3861 16.8173 14.8193 16.7063 16.2413 16.4468C17.3275 16.2146 18.6945 14.9575 18.9611 13.9464C19.406 11.99 19.406 10.0067 18.9611 8.05026C18.6944 7.03909 17.328 5.78203 16.2413 5.54979ZM16.2791 14.0922C16.0619 14.535 15.7458 14.9034 15.2899 15.1385C15.1612 15.2049 15.0075 15.2263 14.8622 15.2693C14.6953 15.2206 14.5361 15.1879 14.3883 15.129C12.857 14.5191 11.4476 13.7322 10.3312 12.526C9.69631 11.84 9.19937 11.0656 8.77938 10.2461C8.5802 9.85743 8.41233 9.45356 8.24123 9.05233C8.08517 8.68643 8.31502 8.30841 8.55699 8.03272C8.78404 7.77399 9.07621 7.57598 9.39263 7.43005C9.63959 7.31614 9.88321 7.38181 10.0636 7.58277C10.4535 8.01724 10.8117 8.47393 11.1017 8.97755C11.28 9.28731 11.2311 9.66595 10.9079 9.87676C10.8293 9.928 10.7577 9.98814 10.6846 10.046C10.6204 10.0967 10.56 10.148 10.516 10.2166C10.4356 10.3422 10.4317 10.4905 10.4835 10.6271C10.8821 11.6787 11.5539 12.4964 12.6564 12.9368C12.8329 13.0072 13.0101 13.0893 13.2133 13.0665C13.5537 13.0284 13.6639 12.6699 13.9024 12.4827C14.1356 12.2997 14.4335 12.2972 14.6846 12.4498C14.9358 12.6024 15.1793 12.7663 15.4213 12.9318C15.6589 13.0943 15.8955 13.2533 16.1146 13.4386C16.3252 13.6167 16.3978 13.8504 16.2791 14.0922ZM14.3019 10.6655C14.2068 10.6672 14.2442 10.6654 14.2803 10.6644C14.1271 10.6592 14.0438 10.5726 14.0273 10.4319C14.0153 10.329 14.0058 10.2248 13.9803 10.1247C13.9299 9.92768 13.8208 9.74505 13.6482 9.6243C13.5666 9.56726 13.4743 9.52566 13.3775 9.4989C13.2546 9.46483 13.1269 9.47421 13.0042 9.44535C12.871 9.41407 12.7974 9.31048 12.8183 9.19051C12.8373 9.08134 12.948 8.99613 13.0722 9.00477C13.8488 9.05859 14.4039 9.44403 14.4831 10.3218C14.4887 10.3837 14.4953 10.4491 14.4809 10.5083C14.4577 10.6047 14.386 10.6548 14.3135 10.6639C14.3194 10.664 14.3183 10.6645 14.3019 10.6655ZM13.819 8.65809C13.5807 8.54608 13.323 8.47646 13.0617 8.43496C12.9476 8.41685 12.8322 8.40584 12.7175 8.39051C12.5785 8.37198 12.5043 8.28693 12.5109 8.15543C12.517 8.0322 12.6108 7.94357 12.7507 7.95115C13.2104 7.97622 13.6544 8.07159 14.0631 8.27934C14.8942 8.70186 15.3689 9.36878 15.5075 10.2593C15.5138 10.2996 15.5238 10.3396 15.527 10.3801C15.5349 10.4801 15.5398 10.5802 15.5478 10.712C15.5445 10.736 15.5427 10.7925 15.5282 10.8456C15.475 11.0387 15.1701 11.0629 15.0999 10.868C15.0791 10.8102 15.076 10.7444 15.0759 10.6822C15.0751 10.2749 14.9829 9.86802 14.769 9.51365C14.5491 9.14954 14.213 8.84336 13.819 8.65809ZM16.3869 11.4103C16.2264 11.4121 16.1541 11.2832 16.1437 11.1449C16.1231 10.8713 16.1088 10.5964 16.0695 10.3251C15.8621 8.8926 14.6723 7.70748 13.1871 7.45317C12.9636 7.41489 12.7348 7.40483 12.5084 7.38203C12.3653 7.3676 12.1779 7.35927 12.1462 7.18849C12.1196 7.0453 12.2455 6.93129 12.3875 6.92397C12.4261 6.92196 12.4649 6.92365 12.5037 6.92381C14.4273 6.97557 12.6211 6.92781 12.5089 6.92407C14.5096 6.98005 16.1523 8.25554 16.5046 10.155C16.5647 10.4789 16.5861 10.8101 16.6128 11.1389C16.624 11.2771 16.5424 11.4085 16.3869 11.4103Z" fill="white"/>
<path d="M0 0V24H25V0H0ZM20.4066 14.26L20.4016 14.279C20.0023 15.8289 18.2019 17.492 16.5485 17.8379L16.5298 17.8416C15.193 18.0865 13.8462 18.2087 12.5 18.2087C12.1038 18.2087 11.7076 18.1968 11.3116 18.1756L9.48564 19.9976C9.03362 20.4495 8.23874 20.1419 8.23874 19.5158V17.7857C6.64707 17.3493 4.98073 15.7627 4.59789 14.279L4.5935 14.26C4.09979 12.0956 4.09979 9.90058 4.5935 7.73614L4.59789 7.71718C4.9978 6.16732 6.7982 4.50424 8.45104 4.15824L8.47024 4.15456C11.144 3.66479 13.8555 3.66479 16.5298 4.15456L16.5485 4.15824C18.2019 4.50424 20.0023 6.16732 20.4016 7.71718L20.4066 7.73614C20.9003 9.90063 20.9003 12.0956 20.4066 14.26Z" fill="white"/>
</svg>
