<svg width="25" height="25" viewBox="0 0 25 25" fill="none" xmlns="http://www.w3.org/2000/svg">
<path d="M12.5115 5.229C8.5137 5.229 5.26123 8.48147 5.26123 12.4793C5.26123 13.8723 5.65713 15.225 6.40604 16.3912L6.58603 16.6714L5.88084 19.1761L8.47217 18.509L8.73943 18.6722C9.87245 19.3639 11.1768 19.7296 12.5115 19.7296C16.5093 19.7296 19.7617 16.4771 19.7617 12.4793C19.7617 8.48147 16.5093 5.229 12.5115 5.229ZM16.9574 14.7076L16.867 15.1301C16.7649 15.6068 16.4818 16.0285 16.0711 16.2912C15.5526 16.623 14.8804 16.7858 14.0261 16.5442C11.3747 15.7945 9.87519 14.0391 9.07066 12.9419C8.26607 11.8448 7.95525 10.7477 8.15636 9.85169C8.29125 9.25078 8.73044 8.78971 9.00511 8.55114C9.13967 8.43429 9.31422 8.37483 9.49213 8.38454L10.0587 8.41542C10.1703 8.42151 10.2687 8.49041 10.3126 8.59316L11.1379 10.5242C11.182 10.6274 11.1635 10.7466 11.0901 10.8315L10.3717 11.6626C10.3134 11.7299 10.3033 11.8259 10.3443 11.905C11.2905 13.7275 13.0149 14.4497 13.5296 14.6307C13.6174 14.6615 13.7146 14.6324 13.7714 14.5587L14.5231 13.5842C14.6067 13.4758 14.7541 13.4396 14.8784 13.4969L16.7932 14.3795C16.918 14.4371 16.9862 14.5733 16.9574 14.7076Z" fill="white"/>
<path d="M0 0V25H25V0H0ZM12.5113 21.2107C11.0111 21.2107 9.54214 20.8267 8.24264 20.0975L3.75737 21.2521L4.98194 16.9028C4.19447 15.565 3.77986 14.0429 3.77986 12.4793C3.77986 7.66477 7.69676 3.74788 12.5113 3.74788C17.3258 3.74788 21.2426 7.66477 21.2426 12.4793C21.2426 17.2938 17.3258 21.2107 12.5113 21.2107Z" fill="white"/>
</svg>
