<svg width="95" height="106" viewBox="0 0 95 106" fill="none" xmlns="http://www.w3.org/2000/svg">
<path d="M35 19C35.1667 16 37.5 10 45.5 10H46.5V1.5H73.5V10H75C77.8333 10.3333 83.7 12.9 84.5 20.5C84.7494 22.8689 85.4262 28.214 86.3155 35C86.8514 39.0888 87.4644 43.7008 88.1075 48.5C88.723 53.0933 89.3661 57.8581 89.9955 62.5C90.6371 67.2317 91.2645 71.8357 91.8341 76C92.2615 79.1248 92.6563 82.0021 93 84.5C93.2445 86.028 93.3365 88.1164 93 90.1487C92.4188 93.658 90.5596 97 86 97H73.5V105H45.5V97H34C32.3273 96.8141 29.7843 96.0584 28 94.386C26.5841 93.059 25.646 91.1547 26 88.5C26.3284 86.037 26.668 83.209 26.9774 80.5C27.4217 76.6097 27.8035 72.965 28 71L28.6731 66L30.625 51.5L32.6442 36.5L34.5962 22L35 19Z" fill="white"/>
<path d="M4 5.5C1.5 8.16667 -0.800004 13.9 10 15.5C23.5 17.5 35.5 22.5 24 35C12.5 47.5 9 70.5 28 71M28 71C27.8035 72.965 27.4217 76.6097 26.9774 80.5M28 71L28.6731 66M75 10C77.8333 10.3333 83.7 12.9 84.5 20.5M75 10L34.5962 22M75 10C74.5406 10 74.0388 10 73.5 10M84.5 20.5C84.7494 22.8689 85.4262 28.214 86.3155 35M84.5 20.5L32.6442 36.5M69.5 97L93 90.1487M69.5 97C61.9441 97 53.1559 97 45.5 97M69.5 97C70.8792 97 72.2173 97 73.5 97M93 90.1487C93.3365 88.1164 93.2445 86.028 93 84.5C92.6563 82.0021 92.2615 79.1248 91.8341 76M93 90.1487C92.4188 93.658 90.5596 97 86 97C83.7318 97 79.1545 97 73.5 97M28 94.386C29.7843 96.0584 32.3273 96.8141 34 97C37.1819 97 41.159 97 45.5 97M28 94.386C26.5841 93.059 25.646 91.1547 26 88.5C26.3284 86.037 26.668 83.209 26.9774 80.5M28 94.386L91.8341 76M91.8341 76C91.2645 71.8357 90.6371 67.2317 89.9955 62.5M26.9774 80.5L89.9955 62.5M89.9955 62.5C89.3661 57.8581 88.723 53.0933 88.1075 48.5M28.6731 66L88.1075 48.5M28.6731 66L30.625 51.5M88.1075 48.5C87.4644 43.7008 86.8514 39.0888 86.3155 35M30.625 51.5L86.3155 35M30.625 51.5L32.6442 36.5M32.6442 36.5L34.5962 22M34.5962 22L35 19C35.1667 16 37.5 10 45.5 10C45.8223 10 46.156 10 46.5 10M46.5 10V1.5H73.5V10M46.5 10C54.0914 10 66.722 10 73.5 10M45.5 97V105H73.5V97" stroke="black" stroke-width="2" stroke-linecap="round" stroke-linejoin="round"/>
</svg>
