<svg width="103" height="101" viewBox="0 0 103 101" fill="none" xmlns="http://www.w3.org/2000/svg">
<rect x="2" y="34" width="99" height="10" rx="5" stroke="black" stroke-width="2"/>
<rect x="2" y="56" width="99" height="10" rx="5" stroke="black" stroke-width="2"/>
<rect x="2" y="78" width="99" height="10" rx="5" stroke="black" stroke-width="2"/>
<path d="M46 10.0003C49.0001 2.00004 41.4999 -0.999894 37.5 4.00015C34.7001 7.50015 30.3866 20.242 34.5 26.0004C36.8004 29.2207 37.5132 31.8061 37.369 34H48.8508C48.6621 30.5219 47.1985 27.5676 46 26.0004C44.5 24.667 42.4001 19.6003 46 10.0003Z" fill="white"/>
<path d="M46 75.0004C50 67.8004 47.6667 61.6671 46 59.5004C43.9394 56.9643 41.0949 50.4784 45.2946 44H32.3419C30.6748 47.376 30.0777 51.3859 33 56.5C37 63.5 37.5 66.0004 33 75.0004C32.4867 76.0271 32.0848 77.0266 31.7815 78H44.518C44.9131 77.0675 45.4049 76.0716 46 75.0004Z" fill="white"/>
<path d="M36.5 96.5004C41.3 103.3 51.4167 96.5004 46 90.0004C45.4443 89.3336 44.9627 88.6723 44.5645 88H31.8682C32.8999 91.1768 34.7273 93.9891 36.5 96.5004Z" fill="white"/>
<path d="M69 10.0003C72.0001 2.00004 64.4999 -0.999894 60.5 4.00015C59.4479 5.31538 57.5422 9.93565 56.5901 13H68C68.1132 12.6724 68.8729 10.3391 69 10.0003Z" fill="white"/>
<path d="M69 43.0004C74.2 36.2004 71.1667 28.8338 69 26.0004C68.4514 25.5127 67.8225 24.5256 67.4216 23H56.1861C56.4575 24.1203 56.8844 25.1386 57.5 26.0004C62.5 33 60 37 57.5 40.5C54.6635 44.4711 52.1246 49.264 55.7236 56H67.0443C65.7509 52.5914 65.3762 47.7392 69 43.0004Z" fill="white"/>
<path d="M69 90.0004C65.6663 86 65 82.2004 69 75.0004C70.8457 71.6782 71.3429 68.5831 71.1795 66H59.1607C58.9802 68.3702 57.9685 71.0635 56 75.0004C51.4723 84.0558 55.6174 91 59.5 96.5004C64.3 103.3 74.4167 96.5004 69 90.0004Z" fill="white"/>
<path d="M91.5 10.0003C94.5001 2.00004 86.9999 -0.999894 83 4.00015C80.2001 7.50015 75.8866 20.242 80 26.0004C82.3004 29.2207 83.0132 31.8061 82.869 34H94.3508C94.1621 30.5219 92.6985 27.5676 91.5 26.0004C90 24.667 87.9001 19.6003 91.5 10.0003Z" fill="white"/>
<path d="M91.5 75.0004C95.5 67.8004 93.1667 61.6671 91.5 59.5004C89.4394 56.9643 86.5949 50.4784 90.7946 44H77.8419C76.1748 47.376 75.5777 51.3859 78.5 56.5C82.5 63.5 83 66.0004 78.5 75.0004C77.9867 76.0271 77.5848 77.0266 77.2815 78H90.018C90.4131 77.0675 90.9049 76.0716 91.5 75.0004Z" fill="white"/>
<path d="M82 96.5004C86.8 103.3 96.9167 96.5004 91.5 90.0004C90.9443 89.3336 90.4628 88.6723 90.0646 88H77.3682C78.3999 91.1768 80.2273 93.9891 82 96.5004Z" fill="white"/>
<path d="M24 10.0003C27 2.00004 19.4999 -0.999894 15.5 4.00015C14.4478 5.31538 12.5422 9.93565 11.59 13H23C23.1132 12.6724 23.8729 10.3391 24 10.0003Z" fill="white"/>
<path d="M24 43.0004C29.2 36.2004 26.1666 28.8338 24 26.0004C23.4514 25.5127 22.8225 24.5256 22.4216 23H11.186C11.4575 24.1203 11.8843 25.1386 12.5 26.0004C17.5 33 15 37 12.5 40.5C9.66347 44.4711 7.12457 49.264 10.7235 56H22.0443C20.7509 52.5914 20.3762 47.7392 24 43.0004Z" fill="white"/>
<path d="M24 90.0004C20.6663 86 20 82.2004 24 75.0004C25.8456 71.6782 26.3429 68.5831 26.1794 66H14.1607C13.9802 68.3702 12.9685 71.0635 11 75.0004C6.47231 84.0558 10.6173 91 14.5 96.5004C19.3 103.3 29.4166 96.5004 24 90.0004Z" fill="white"/>
<path d="M45.2946 44C41.0949 50.4784 43.9394 56.9643 46 59.5004C47.6667 61.6671 50 67.8004 46 75.0004C45.4049 76.0716 44.9131 77.0675 44.518 78H31.7815C32.0848 77.0266 32.4867 76.0271 33 75.0004C37.5 66.0004 37 63.5 33 56.5C30.0777 51.3859 30.6748 47.376 32.3419 44H46M37.5 4.00015C41.4999 -0.999894 49.0001 2.00004 46 10.0003C42.4001 19.6003 44.5 24.667 46 26.0004C47.1985 27.5676 48.6621 30.5219 48.8508 34H37.369C37.5132 31.8061 36.8004 29.2207 34.5 26.0004C30.3866 20.242 34.7001 7.50015 37.5 4.00015ZM46 90.0004C51.4167 96.5004 41.3 103.3 36.5 96.5004C34.7273 93.9891 32.8999 91.1768 31.8682 88H44.5645C44.9627 88.6723 45.4443 89.3336 46 90.0004ZM60.5 4.00015C64.4999 -0.999894 72.0001 2.00004 69 10.0003C68.8729 10.3391 68.1132 12.6724 68 13H56.5901C57.5422 9.93565 59.4479 5.31538 60.5 4.00015ZM69 26.0004C71.1667 28.8338 74.2 36.2004 69 43.0004C65.3762 47.7392 65.7509 52.5914 67.0443 56H55.7236C52.1246 49.264 54.6635 44.4711 57.5 40.5C60 37 62.5 33 57.5 26.0004C56.8844 25.1386 56.4575 24.1203 56.1861 23H67.4216C67.8225 24.5256 68.4514 25.5127 69 26.0004ZM69 75.0004C65 82.2004 65.6663 86 69 90.0004C74.4167 96.5004 64.3 103.3 59.5 96.5004C55.6174 91 51.4723 84.0558 56 75.0004C57.9685 71.0635 58.9802 68.3702 59.1607 66H71.1795C71.3429 68.5831 70.8457 71.6782 69 75.0004ZM83 4.00015C86.9999 -0.999894 94.5001 2.00004 91.5 10.0003C87.9001 19.6003 90 24.667 91.5 26.0004C92.6985 27.5676 94.1621 30.5219 94.3508 34H82.869C83.0132 31.8061 82.3004 29.2207 80 26.0004C75.8866 20.242 80.2001 7.50015 83 4.00015ZM91.5 59.5004C93.1667 61.6671 95.5 67.8004 91.5 75.0004C90.9049 76.0716 90.4131 77.0675 90.018 78H77.2815C77.5848 77.0266 77.9867 76.0271 78.5 75.0004C83 66.0004 82.5 63.5 78.5 56.5C75.5777 51.3859 76.1748 47.376 77.8419 44H90.7946C86.5949 50.4784 89.4394 56.9643 91.5 59.5004ZM91.5 90.0004C96.9167 96.5004 86.8 103.3 82 96.5004C80.2273 93.9891 78.3999 91.1768 77.3682 88H90.0646C90.4628 88.6723 90.9443 89.3336 91.5 90.0004ZM15.5 4.00015C19.4999 -0.999894 27 2.00004 24 10.0003C23.8729 10.3391 23.1132 12.6724 23 13H11.59C12.5422 9.93565 14.4478 5.31538 15.5 4.00015ZM24 26.0004C26.1666 28.8338 29.2 36.2004 24 43.0004C20.3762 47.7392 20.7509 52.5914 22.0443 56H10.7235C7.12457 49.264 9.66347 44.4711 12.5 40.5C15 37 17.5 33 12.5 26.0004C11.8843 25.1386 11.4575 24.1203 11.186 23H22.4216C22.8225 24.5256 23.4514 25.5127 24 26.0004ZM24 75.0004C20 82.2004 20.6663 86 24 90.0004C29.4166 96.5004 19.3 103.3 14.5 96.5004C10.6173 91 6.47231 84.0558 11 75.0004C12.9685 71.0635 13.9802 68.3702 14.1607 66H26.1794C26.3429 68.5831 25.8456 71.6782 24 75.0004Z" stroke="black" stroke-width="2" stroke-linecap="round" stroke-linejoin="round"/>
<path d="M34 13H6C3.23858 13 1 15.2386 1 18V18C1 20.7614 3.23858 23 6 23H33M45.5 13H79.5M44.5 23H78.5M90.25 23H97C99.7614 23 102 20.7614 102 18V18C102 15.2386 99.7614 13 97 13H90.75" stroke="black" stroke-width="2"/>
</svg>
