<svg width="97" height="107" viewBox="0 0 97 107" fill="none" xmlns="http://www.w3.org/2000/svg">
<path d="M1.06642 16.5269C0.566418 11.3602 2.66642 1.02687 15.0664 1.02687H81.5664C86.0664 0.693536 95.0664 3.32687 95.0664 16.5269V73.0269V80.0269C95.2331 84.3602 92.1664 93.0269 78.5664 93.0269C84.5664 93.0269 86.0665 105.527 76.0665 105.527H61.5665H21.0665C8.27166 105.527 1.06786 95.2994 1.16421 85.5269L1.06642 16.5269Z" fill="white"/>
<path d="M95.0664 80.0269V73.0269C95.0664 59.6935 95.0664 29.7269 95.0664 16.5269C95.0664 3.32687 86.0664 0.693536 81.5664 1.02687C64.5664 1.02687 27.4664 1.02687 15.0664 1.02687C2.66642 1.02687 0.566418 11.3602 1.06642 16.5269L1.16421 85.5269M95.0664 80.0269C95.2331 84.3602 92.1664 93.0269 78.5664 93.0269M95.0664 80.0269C95.0664 72.0269 87.3997 68.6935 83.5664 68.0269H66.5664C63.7331 68.0269 51.0665 68.0269 21.0665 68.0269C-7.43349 68.0269 -3.43354 105.527 21.0665 105.527C30.5723 105.527 47.6271 105.527 61.5665 105.527M78.5664 93.0269C64.9664 93.0269 39.5664 93.0269 28.5664 93.0269M78.5664 93.0269C84.5664 93.0269 86.0665 105.527 76.0665 105.527C71.9869 105.527 68.4011 105.527 61.5665 105.527M21.5664 93.0269C15.2692 93.0269 13.3629 86.4405 16.0507 83.0269M80.0664 81.0269L84.5664 77.0269M80.0664 81.0269L84.5664 85.5269M80.0664 81.0269C74.1085 81.0269 64.6357 81.0269 54.5665 81.0269M11.0665 16.5269L15.0664 12.0269M28.5664 16.5269H35.0665M56.5665 9.02686L61.5665 15.0269M76.0665 15.0269H83.5664M86.5665 32.5269V38.5269M66.5664 27.0269L71.0665 31.0269M52.0665 22.5269V29.0269M42.5665 38.5269L37.5665 43.5269M18.5665 31.0269L23.0665 35.0269M11.0665 47.0269L15.0664 45.0269M17.0665 58.5269L20.5664 53.0269M35.0665 56.0269L41.5665 57.0269M56.5665 53.0269V59.5269M65.0665 47.0269L71.0665 43.5269M78.5664 57.0269L84.5664 58.5269M61.5665 85.5269L66.5664 89.0269M54.5665 75.5269V81.0269M54.5665 81.0269C42.3831 81.0269 29.3265 81.0269 20.5664 81.0269C18.4932 81.0269 16.9909 81.8328 16.0507 83.0269M28.5664 73.0269L34.5665 74.5269M11.0665 78.5269L16.0507 83.0269M11.0665 93.0269V98.0269M28.5664 100.027L34.5665 98.0269M58.0665 100.027L61.5665 105.527" stroke="black" stroke-width="2" stroke-linecap="round" stroke-linejoin="round"/>
</svg>
