<svg width="126" height="109" viewBox="0 0 126 109" fill="none" xmlns="http://www.w3.org/2000/svg">
<path d="M106 8.00016C116 8.00016 118.833 16.0002 119 20.0002V22C122 22 125 21.8 125 25V43C125 46.5 123 46.5 119 46.5V52C122 52 125 51.6 125 54V59.5C125 61.5 122.5 61.5 119 61.5V79.5002V85.5002V90.5002C119 104.5 106 108 99.5 108H21C5.8 108 1.66667 96.3335 1.5 90.5002L1.50002 84.5002C1.50002 80.5002 6.16667 79.5002 8.5 79.5002H79C77.1667 69.1668 73.3 47.0002 72.5 41.0002C71.7 35.0002 66.5 33.8335 64 34.0002H51C46.2 34.0002 43.6667 36.3335 43 37.5002C42.5 38.0002 40.7 40.1002 37.5 44.5002C34.3 48.9002 29.8333 49.6668 28 49.5002H19V64.5002V69.5002H22.5V73.5002H16.5V69.5002H19V64.5002V49.5002H9.50002C2.30002 49.5002 1.16669 43.1668 1.50002 40.0002V28.0002C1.50002 13.5002 13.5 8.00016 23 8.00016H56C56 6.66682 56.6 3.90016 59 3.50016C61.4 3.10016 80.3333 3.33349 89.5 3.50016C90.5 3.50021 92.5 4.40028 92.5 8.00016H102.5H106Z" fill="white"/>
<path d="M79 79.5002C77.1667 69.1668 73.3 47.0002 72.5 41.0002C71.7 35.0002 66.5 33.8335 64 34.0002C61.6667 34.0002 55.8 34.0002 51 34.0002C46.2 34.0002 43.6667 36.3335 43 37.5002C42.5 38.0002 40.7 40.1002 37.5 44.5002C34.3 48.9002 29.8333 49.6668 28 49.5002C26.22 49.5002 22.8707 49.5002 19 49.5002M119 79.5002V85.5002C119 86.3335 119 88.5002 119 90.5002C119 104.5 106 108 99.5 108C79.6667 108 36.2 108 21 108C5.8 108 1.66667 96.3335 1.5 90.5002C1.50001 90.1668 1.50002 88.5002 1.50002 84.5002C1.50002 80.5002 6.16667 79.5002 8.5 79.5002H119ZM119 79.5002V61.5M19 49.5002C15.9846 49.5002 12.6529 49.5002 9.50002 49.5002C2.30002 49.5002 1.16669 43.1668 1.50002 40.0002V28.0002C1.50002 13.5002 13.5 8.00016 23 8.00016C31.5917 8.00016 43.6586 8.00016 56 8.00016M19 49.5002V69.5002M16.5 64.5002H25.5M56 8.00016C56 6.66682 56.6 3.90016 59 3.50016C61.4 3.10016 80.3333 3.33349 89.5 3.50016C90.5 3.50021 92.5 4.40028 92.5 8.00016M56 8.00016C69.1445 8.00016 82.6002 8.00016 92.5 8.00016M92.5 8.00016C96.4983 8.00016 99.9166 8.00016 102.5 8.00016M102.5 1.5V8.00016M102.5 8.00016C103.941 8.00016 105.123 8.00016 106 8.00016C116 8.00016 118.833 16.0002 119 20.0002V22M119 22C122 22 125 21.8 125 25C125 28.2 125 38.3333 125 43C125 46.5 123 46.5 119 46.5M119 22V46.5M119 46.5V52M119 52C122 52 125 51.6 125 54C125 56.4 125 58.6667 125 59.5C125 61.5 122.5 61.5 119 61.5M119 52V61.5M16.5 69.5002H22.5V73.5002H16.5V69.5002ZM112.5 20.5V49C112.5 51 111.4 55 107 55C102.6 55 91.5 55 86.5 55C84.6667 55 80.8 53.8 80 49C79.2 44.2 78.3333 39.6667 78 38C77 34.5 72.9 29.3 68.5 28.5C63 27.5 63 26 63 22C63 18.8 63 18.5 63 18C63 16.5 63.5 14 67.5 14C71.5 14 95.5 14 107 14C108.833 14 112.5 15.3 112.5 20.5ZM88.5 42.5H103.5C106 42.5 107 43.5 107 45C107 47.5 107.668 50 103.5 50C100.7 50 92.3333 50 88.5 50C87.5 50 85.5 49.5 85.5 47.5C85.5 45 85 42.5 88.5 42.5Z" stroke="black" stroke-width="2" stroke-linecap="round" stroke-linejoin="round"/>
<circle cx="98.5" cy="28.5" r="8.5" fill="white" stroke="black" stroke-width="2"/>
</svg>
