<svg width="173" height="137" viewBox="0 0 173 137" fill="none" xmlns="http://www.w3.org/2000/svg">
<path fill-rule="evenodd" clip-rule="evenodd" d="M92.9163 15.4297V4.17453L93.7821 3.02015L98.9767 1.86578L108.212 1H115.427L122.641 1.57719L127.259 2.44297L129.568 3.30875L130.145 4.17453L130.433 15.7183L133.897 15.4297L137.937 15.7183L143.709 17.7384L147.46 20.3358L159.004 31.3023L168.816 41.1145L170.837 44.0004L171.702 47.7521V53.524L171.991 62.759V68.5309L170.837 72.2826L168.528 74.5913L164.199 76.9001L157.85 80.6518L151.212 84.1149L145.152 87.2894V101.431V103.739L144.575 106.337L143.132 108.068L142.266 108.357V115.572H81.9497V108.357L80.2182 107.491L79.0638 103.739V87.8666L70.406 82.9605L58.8623 76.9001L55.1105 74.5913L52.8018 70.8396L52.2246 66.7993V59.5845V48.0407L53.0904 44.5776L54.822 41.6917L58.2851 37.94L63.1912 33.0339L73.0033 23.7989L77.9094 19.7586L81.3725 17.4498L84.8357 16.2955L88.2988 15.7183L91.4733 15.4297H92.9163ZM79.0638 54.3897V67.0878L71.849 61.0273L79.0638 54.3897ZM152.655 61.0273L145.152 54.6783V67.3764L152.655 61.0273Z" fill="white"/>
<path d="M169.682 41.9803C163.237 35.3426 149.307 21.3747 145.152 18.6042V54.1012V67.2427C140.965 70.7827 137.035 74.0976 134.185 76.4874C131.932 78.3765 130.354 79.6875 129.856 80.0746C127.778 81.6907 128.028 83.6339 128.413 84.4035C128.611 84.7738 128.882 85.2733 129.199 85.8465C129.86 87.0412 130.722 88.5557 131.537 89.8868C131.854 90.4056 132.165 90.8965 132.454 91.3298C133.839 93.4076 136.109 92.5803 137.071 91.9069C138.571 91.1093 140.341 90.1668 142.266 89.1409C143.196 88.6451 144.162 88.1298 145.152 87.602C154.46 82.6359 165.802 76.5612 168.239 75.1685C171.471 73.3215 172.087 68.8195 171.991 66.7993V48.9065C171.991 45.2125 170.452 42.7499 169.682 41.9803Z" fill="white"/>
<path d="M92.9162 4.35594C92.9162 -0.261821 130.433 0.0268556 130.433 4.35594M92.9162 4.35594V15.6109M92.9162 4.35594C92.9162 5.43564 94.9676 6.29442 98.1109 6.91015M130.433 4.35594C130.433 5.22165 130.433 8.68465 130.433 15.6109M130.433 4.35594C130.433 5.46468 128.724 6.31047 126.035 6.91015M92.9162 15.6109C90.0303 15.4543 83.2195 15.8337 79.0638 18.6042M92.9162 15.6109C94.0906 16.9454 95.9008 18.0232 98.1109 18.8497M130.433 15.6109C136.898 14.6015 142.939 17.1858 145.152 18.6042M130.433 15.6109C129.414 16.7441 127.893 17.6996 126.035 18.4736M79.0638 18.6042C74.908 21.3747 60.9786 35.3426 54.5333 41.9803C53.7637 42.7499 52.2246 45.2125 52.2246 48.9065C52.2246 52.6005 52.2246 62.3742 52.2246 66.7993C52.1284 68.8195 52.744 73.3215 55.9763 75.1685C58.4135 76.5612 69.7552 82.6359 79.0638 87.602M79.0638 18.6042V54.1012M61.171 52.081C64.0535 54.5285 67.7925 57.7001 71.7203 61.0274M71.7203 61.0274C74.1485 63.0845 76.6489 65.201 79.0638 67.2427M71.7203 61.0274L79.0638 54.1012M79.0638 67.2427V54.1012M79.0638 67.2427C83.2507 70.7827 87.1802 74.0976 90.0303 76.4874M81.9497 89.1409C83.8746 90.1668 85.6449 91.1093 87.1444 91.9069C88.1063 92.5803 90.3766 93.4076 91.7619 91.3297C92.0507 90.8965 92.3612 90.4056 92.6789 89.8868M81.9497 89.1409L84.6064 84.9807M81.9497 89.1409C81.0194 88.6451 80.0531 88.1298 79.0638 87.602M90.0303 76.4874C92.2832 78.3765 93.8615 79.6875 94.3592 80.0746C96.4371 81.6907 96.187 83.6339 95.8022 84.4035C95.6047 84.7738 95.3337 85.2733 95.0166 85.8465M90.0303 76.4874L87.3184 80.7341M84.6064 84.9807L92.6789 89.8868M84.6064 84.9807L87.3184 80.7341M92.6789 89.8868C93.4938 88.5557 94.3555 87.0412 95.0166 85.8465M87.3184 80.7341L95.0166 85.8465M79.0638 87.602V103.739C79.1401 105.278 79.8243 108.357 81.9497 108.357M81.9497 108.357V115.86H87.1444M81.9497 108.357C82.5756 108.357 84.5113 108.357 87.1444 108.357M145.152 18.6042C149.307 21.3747 163.237 35.3426 169.682 41.9803C170.452 42.7499 171.991 45.2125 171.991 48.9065V66.7993C172.087 68.8195 171.471 73.3215 168.239 75.1685C165.802 76.5612 154.46 82.6359 145.152 87.602M145.152 18.6042V54.1012M152.495 61.0274C156.423 57.7001 160.162 54.5285 163.044 52.081M152.495 61.0274C150.067 63.0845 147.566 65.201 145.152 67.2427M152.495 61.0274L145.152 54.1012M145.152 67.2427V54.1012M145.152 67.2427C140.965 70.7827 137.035 74.0976 134.185 76.4874M142.266 89.1409C140.341 90.1668 138.571 91.1093 137.071 91.9069C136.109 92.5803 133.839 93.4076 132.454 91.3297C132.165 90.8965 131.854 90.4056 131.537 89.8868M142.266 89.1409L139.609 84.9807M142.266 89.1409C143.196 88.6451 144.162 88.1298 145.152 87.602M134.185 76.4874C131.932 78.3765 130.354 79.6875 129.856 80.0746C127.778 81.6907 128.028 83.6339 128.413 84.4035C128.611 84.7738 128.882 85.2733 129.199 85.8465M134.185 76.4874L136.897 80.7341M139.609 84.9807L136.897 80.7341M139.609 84.9807L131.537 89.8868M131.537 89.8868C130.722 88.5557 129.86 87.0412 129.199 85.8465M136.897 80.7341L129.199 85.8465M145.152 87.602V103.739C145.075 105.278 144.391 108.357 142.266 108.357M142.266 108.357V115.86H137.36M142.266 108.357H137.36M87.1444 108.357V115.86M87.1444 108.357C88.7712 108.357 90.6642 108.357 92.6789 108.357M87.1444 115.86H92.6789M92.6789 108.357V115.86M92.6789 108.357C94.4293 108.357 96.2715 108.357 98.1109 108.357M92.6789 115.86H98.1109M98.1109 108.357V115.86M98.1109 108.357C100.283 108.357 102.452 108.357 104.46 108.357M98.1109 115.86H104.46M104.46 108.357C106.384 108.357 108.161 108.357 109.655 108.357H111.098M104.46 108.357V115.86M104.46 115.86H109.655H111.098M111.098 108.357V115.86M111.098 108.357H116.869M111.098 115.86H116.869M116.869 108.357V115.86M116.869 108.357H122.064M116.869 115.86H122.064M122.064 108.357V115.86M122.064 108.357H127.547M122.064 115.86H127.547M127.547 108.357V115.86M127.547 108.357H132.454M127.547 115.86H132.454M132.454 108.357V115.86M132.454 108.357H137.36M132.454 115.86H137.36M137.36 108.357V115.86M107.057 28.4164C104.268 28.224 97.5337 27.3774 94.0706 24.3761M90.3189 20.0472C90.3189 20.0472 90.4951 20.8579 92.2248 22.6445M98.1109 6.91015V18.8497M98.1109 6.91015C100.072 7.29434 102.459 7.58391 105.037 7.77347M98.1109 18.8497C100.143 19.6096 102.513 20.1572 105.037 20.4966M105.037 7.77347V20.4966M105.037 7.77347C107.253 7.9364 109.611 8.02546 111.963 8.03723M105.037 20.4966C107.267 20.7965 109.618 20.934 111.963 20.9121M111.963 8.03723V20.9121M111.963 8.03723C114.432 8.04959 116.894 7.97681 119.178 7.81495M111.963 20.9121C114.423 20.889 116.877 20.6906 119.178 20.3201M119.178 7.81495V20.3201M119.178 7.81495C121.778 7.63071 124.148 7.33105 126.035 6.91015M119.178 20.3201C121.714 19.9119 124.064 19.2949 126.035 18.4736M126.035 6.91015V18.4736" stroke="black" stroke-width="2" stroke-linecap="round" stroke-linejoin="round"/>
<path fill-rule="evenodd" clip-rule="evenodd" d="M89.8868 34.7316H86.7122C86.3275 34.443 85.3847 33.6926 84.6921 33C69.9161 39.0027 56.2175 35.5011 51.2153 33L49.1951 35.0202L47.1749 35.3087L44.0004 35.5973L40.5373 36.1745L37.0742 37.3289L33.6111 39.6376L28.705 43.9666L24.0875 49.4498L20.0472 54.9331L16.584 58.9734L14.8525 61.8593L12.2551 66.7654L7.92624 76.8662L5.04031 88.1213L3.30875 105.437L2.15437 116.404L1 123.618L1.57719 125.35L3.30875 126.216L11.1008 127.659L13.4095 127.37L14.8525 125.061L16.584 119.867L22.3559 102.84L23.1197 101.271L35.3426 73.9803V107.746V123.618L36.497 126.793L37.6514 128.236V135.451H97.9674V128.236L98.8332 127.947L100.276 126.216L100.853 123.618V121.31V107.169L106.914 103.994L113.551 100.531L119.9 96.7792L124.229 94.4704L126.538 92.1617L127.693 88.4099V82.6381V73.1145L127.981 67.3426L127.115 62.7251L124.518 59.5506L114.994 50.3156L104.028 40.2148L100.276 37.3289L94.7929 35.3087L89.8868 34.7316ZM101.431 73.4031V86.967L108.934 80.0407L101.431 73.4031Z" fill="white"/>
<path d="M125.98 61.2823C119.535 54.6446 105.605 40.6767 101.449 37.9062V73.4032V86.5447C97.2626 90.0847 93.333 93.3996 90.4829 95.7894C88.23 97.6785 86.6517 98.9895 86.154 99.3766C84.0761 100.993 84.3263 102.936 84.711 103.706C84.9085 104.076 85.1795 104.575 85.4967 105.148C86.1577 106.343 87.0194 107.858 87.8343 109.189C88.152 109.708 88.4625 110.199 88.7514 110.632C90.1366 112.71 92.4069 111.882 93.3688 111.209C94.8683 110.411 96.6386 109.469 98.5635 108.443C99.4938 107.947 100.46 107.432 101.449 106.904C110.758 101.938 122.1 95.8632 124.537 94.4705C127.769 92.6235 128.385 88.1215 128.289 86.1013V68.2085C128.289 64.5145 126.749 62.0519 125.98 61.2823Z" fill="white"/>
<path d="M1.14588 122.142C0.834282 123.274 0.816641 125.69 3.23884 126.298C3.74385 126.425 4.31053 126.553 4.90585 126.678C6.43316 126.999 8.14906 127.302 9.49628 127.524C10.1426 127.631 10.7041 127.718 11.1192 127.78C11.9733 127.884 13.8877 127.468 14.713 124.968C14.9107 124.37 15.6162 122.443 16.6399 119.687L11.7295 118.557L6.81913 117.427L2.00871 116.32C1.68808 118.478 1.39414 120.462 1.14588 122.142Z" fill="white"/>
<path d="M49.2141 34.9129C46.3281 34.7563 39.5173 35.1357 35.3616 37.9062M49.2141 34.9129C50.3884 36.2474 52.1986 37.3252 54.4087 38.1517C56.4406 38.9116 58.8105 39.4592 61.335 39.7987C63.5652 40.0985 65.9161 40.236 68.2612 40.2141C70.7211 40.191 73.1747 39.9926 75.4761 39.6221C78.0114 39.2139 80.3621 38.5969 82.3331 37.7756C84.1909 37.0016 85.7113 36.0461 86.7312 34.9129M49.2141 34.9129L51.2153 33C58.7187 37.3289 74.0141 38.1517 84.6921 33C85.5579 33.8658 86.2439 34.5639 86.7312 34.9129M86.7312 34.9129C93.1957 33.9035 99.2369 36.4878 101.449 37.9062M35.3616 37.9062V73.4032M35.3616 37.9062C24.0972 47.7184 6.81913 68.4971 4.90585 89.5644L2.00871 116.32M35.3616 73.4032V86.5447V106.904V123.041C35.438 124.58 36.1221 127.659 38.2475 127.659M35.3616 73.4032L23.8086 99.6652L16.6399 119.687M38.2475 127.659V135.162H43.4422M38.2475 127.659C38.8734 127.659 40.8091 127.659 43.4422 127.659M101.449 37.9062C105.605 40.6767 119.535 54.6446 125.98 61.2823C126.749 62.0519 128.289 64.5145 128.289 68.2085V86.1013C128.385 88.1215 127.769 92.6235 124.537 94.4705C122.1 95.8632 110.758 101.938 101.449 106.904M101.449 37.9062V73.4032M108.793 80.3294C112.721 77.0021 116.46 73.8305 119.342 71.383M108.793 80.3294C106.365 82.3865 103.864 84.503 101.449 86.5447M108.793 80.3294L101.449 73.4032M101.449 86.5447V73.4032M101.449 86.5447C97.2626 90.0847 93.333 93.3996 90.4829 95.7894M98.5635 108.443C96.6387 109.469 94.8683 110.411 93.3688 111.209C92.4069 111.882 90.1366 112.71 88.7514 110.632C88.4625 110.199 88.152 109.708 87.8343 109.189M98.5635 108.443L95.9068 104.283M98.5635 108.443C99.4938 107.947 100.46 107.432 101.449 106.904M90.4829 95.7894C88.23 97.6785 86.6517 98.9895 86.154 99.3766C84.0761 100.993 84.3263 102.936 84.711 103.706C84.9085 104.076 85.1795 104.575 85.4967 105.148M90.4829 95.7894L93.1949 100.036M95.9068 104.283L93.1949 100.036M95.9068 104.283L87.8343 109.189M87.8343 109.189C87.0194 107.858 86.1577 106.343 85.4967 105.148M93.1949 100.036L85.4967 105.148M101.449 106.904V123.041C101.373 124.58 100.689 127.659 98.5635 127.659M98.5635 127.659V135.162H93.6574M98.5635 127.659H93.6574M43.4422 127.659V135.162M43.4422 127.659C45.069 127.659 46.962 127.659 48.9767 127.659M43.4422 135.162H48.9767M48.9767 127.659V135.162M48.9767 127.659C50.7271 127.659 52.5693 127.659 54.4087 127.659M48.9767 135.162H54.4087M54.4087 127.659V135.162M54.4087 127.659C56.5811 127.659 58.7494 127.659 60.7578 127.659M54.4087 135.162H60.7578M60.7578 127.659C62.6819 127.659 64.4592 127.659 65.9525 127.659H67.3954M60.7578 127.659V135.162M60.7578 135.162H65.9525H67.3954M67.3954 127.659V135.162M67.3954 127.659H73.1673M67.3954 135.162H73.1673M73.1673 127.659V135.162M73.1673 127.659H78.362M73.1673 135.162H78.362M78.362 127.659V135.162M78.362 127.659H83.8453M78.362 135.162H83.8453M83.8453 127.659V135.162M83.8453 127.659H88.7514M83.8453 135.162H88.7514M88.7514 127.659V135.162M88.7514 127.659H93.6574M88.7514 135.162H93.6574M93.6574 127.659V135.162M2.00871 116.32C1.68808 118.478 1.39414 120.462 1.14588 122.142C0.834282 123.274 0.816641 125.69 3.23884 126.298C3.74385 126.425 4.31053 126.553 4.90585 126.678M2.00871 116.32L6.81913 117.427M16.6399 119.687C15.6162 122.443 14.9107 124.37 14.713 124.968C13.8877 127.468 11.9733 127.885 11.1192 127.78C10.7041 127.718 10.1426 127.631 9.49628 127.524M16.6399 119.687L11.7295 118.557M6.81913 117.427L11.7295 118.557M6.81913 117.427L4.90585 126.678M4.90585 126.678C6.43316 126.999 8.14906 127.302 9.49628 127.524M11.7295 118.557L9.49628 127.524" stroke="black" stroke-width="2" stroke-linecap="round" stroke-linejoin="round"/>
</svg>
