<svg width="141" height="119" viewBox="0 0 141 119" fill="none" xmlns="http://www.w3.org/2000/svg">
<path d="M0.62972 21.6732C0.444155 21.8777 0.459505 22.1939 0.664005 22.3794C0.868505 22.565 1.18472 22.5497 1.37028 22.3452L0.62972 21.6732ZM99 82.5089L98.5017 82.4674L99 82.5089ZM68 114.509L67.718 114.922L68 114.509ZM140.968 30.1844C141.065 29.9259 140.934 29.6377 140.676 29.5407L136.462 27.9607C136.204 27.8637 135.915 27.9947 135.818 28.2533C135.721 28.5118 135.852 28.8 136.111 28.897L139.856 30.3015L138.452 34.0468C138.355 34.3054 138.486 34.5936 138.744 34.6905C139.003 34.7875 139.291 34.6565 139.388 34.3979L140.968 30.1844ZM1.37028 22.3452C1.92154 21.7377 2.50287 21.1339 3.11261 20.5353L2.41205 19.8217C1.78922 20.4332 1.19449 21.0508 0.62972 21.6732L1.37028 22.3452ZM6.91205 17.1663C8.19372 16.1339 9.55618 15.1275 10.9893 14.1553L10.4279 13.3278C8.97323 14.3146 7.5887 15.3372 6.28474 16.3875L6.91205 17.1663ZM15.3011 11.4582C16.7503 10.6226 18.2517 9.82349 19.7971 9.06735L19.3576 8.1691C17.7921 8.93509 16.2706 9.74483 14.8016 10.5919L15.3011 11.4582ZM24.4366 6.98364C25.9942 6.34446 27.5848 5.75077 29.2009 5.20824L28.8827 4.26023C27.2456 4.8098 25.6346 5.41114 24.057 6.0585L24.4366 6.98364ZM34.0736 3.75167C35.7116 3.32182 37.3673 2.94736 39.0337 2.63369L38.8487 1.65095C37.1585 1.9691 35.4799 2.34878 33.8198 2.78442L34.0736 3.75167ZM44.0587 1.88043C45.7456 1.69313 47.4359 1.57257 49.1227 1.52416L49.094 0.524571C47.3788 0.573798 45.6612 0.696354 43.9484 0.886535L44.0587 1.88043ZM54.1948 1.6026C55.8878 1.70608 57.5697 1.88906 59.2332 2.15711L59.3923 1.16985C57.6948 0.896328 55.9802 0.709857 54.2558 0.604462L54.1948 1.6026ZM64.1807 3.22729C65.8056 3.67326 67.4047 4.2105 68.9709 4.84467L69.3462 3.91777C67.7426 3.26846 66.1065 2.71886 64.4454 2.26295L64.1807 3.22729ZM73.5298 7.02486C74.9874 7.83685 76.407 8.74665 77.7821 9.75965L78.3752 8.95454C76.9656 7.91612 75.5104 6.98351 74.0165 6.15128L73.5298 7.02486ZM81.6552 13.0073C82.8493 14.1422 83.9994 15.3715 85.1001 16.6997L85.8701 16.0616C84.7444 14.7032 83.5672 13.4449 82.3441 12.2825L81.6552 13.0073ZM88.1053 20.768C89.0082 22.1394 89.8666 23.595 90.6765 25.138L91.562 24.6733C90.7372 23.1019 89.8621 21.6178 88.9405 20.2181L88.1053 20.768ZM92.837 29.7455C93.4666 31.2536 94.0554 32.8322 94.6006 34.4836L95.5502 34.1701C94.9973 32.4953 94.3996 30.8928 93.7598 29.3603L92.837 29.7455ZM96.0203 39.3363C96.4298 40.9279 96.8027 42.5788 97.1369 44.2904L98.1183 44.0988C97.7805 42.3686 97.4033 40.6985 96.9887 39.0871L96.0203 39.3363ZM97.9843 49.3441C98.2154 50.9771 98.4141 52.6597 98.579 54.3931L99.5745 54.2984C99.4082 52.5504 99.2077 50.8526 98.9744 49.204L97.9843 49.3441ZM98.9546 59.4435C99.0459 61.1186 99.1077 62.837 99.139 64.5997L100.139 64.5819C100.107 62.8075 100.045 61.0768 99.9532 59.3891L98.9546 59.4435ZM99.1459 69.6426C99.1218 71.3131 99.0719 73.0205 98.9952 74.7653L99.9943 74.8091C100.071 73.0548 100.122 71.3377 100.146 69.657L99.1459 69.6426ZM98.7033 79.8485C98.6424 80.7128 98.5752 81.5858 98.5017 82.4674L99.4983 82.5504C99.5721 81.6646 99.6396 80.7875 99.7008 79.9189L98.7033 79.8485ZM98.5017 82.4674C98.4344 83.2757 98.3311 84.1756 98.1909 85.1479L99.1807 85.2906C99.3233 84.3011 99.429 83.3812 99.4983 82.5504L98.5017 82.4674ZM97.1891 90.4754C96.8036 92.1626 96.3373 93.9325 95.7879 95.7249L96.744 96.0179C97.3008 94.2011 97.7733 92.4077 98.1639 90.6982L97.1891 90.4754ZM93.9938 100.848C93.3201 102.54 92.5704 104.198 91.7432 105.773L92.6285 106.238C93.4742 104.628 94.2381 102.937 94.9228 101.218L93.9938 100.848ZM88.9091 110.356C87.7993 111.863 86.5946 113.193 85.2943 114.277L85.9347 115.045C87.3091 113.899 88.5674 112.507 89.7144 110.949L88.9091 110.356ZM80.7346 116.852C79.1327 117.358 77.4113 117.512 75.5609 117.224L75.4073 118.212C77.4101 118.523 79.2872 118.358 81.0358 117.806L80.7346 116.852ZM70.584 115.493C69.8352 115.097 69.0679 114.633 68.282 114.096L67.718 114.922C68.5324 115.478 69.3317 115.962 70.1162 116.377L70.584 115.493ZM68.282 114.096C67.5693 113.609 66.9451 113.087 66.4041 112.533L65.6883 113.231C66.2788 113.836 66.9546 114.4 67.718 114.922L68.282 114.096ZM63.9737 108.405C63.5436 106.934 63.4337 105.318 63.6207 103.573L62.6264 103.466C62.428 105.318 62.5408 107.068 63.0139 108.685L63.9737 108.405ZM64.7635 98.7502C65.2831 97.2676 65.9599 95.7263 66.78 94.1367L65.8913 93.6782C65.0537 95.3019 64.3572 96.886 63.8198 98.4194L64.7635 98.7502ZM69.2893 89.8011C70.1612 88.4334 71.1199 87.0411 72.1568 85.6302L71.351 85.038C70.3025 86.4647 69.3312 87.8752 68.4461 89.2636L69.2893 89.8011ZM75.2607 81.6319C76.3004 80.3578 77.3946 79.0738 78.5373 77.7842L77.7889 77.121C76.6379 78.42 75.5348 79.7143 74.4859 80.9996L75.2607 81.6319ZM81.9621 74.0526C83.1085 72.8444 84.2916 71.6348 85.5068 70.4271L84.8019 69.7178C83.5801 70.932 82.3901 72.1486 81.2367 73.3643L81.9621 74.0526ZM89.1518 66.8994C90.3725 65.748 91.6179 64.6015 92.8839 63.4627L92.2152 62.7192C90.9435 63.8631 89.6922 65.015 88.4657 66.172L89.1518 66.8994ZM96.6935 60.1118C97.9727 59.0111 99.2675 57.9208 100.574 56.8436L99.9374 56.0721C98.6259 57.1536 97.3258 58.2485 96.0412 59.3538L96.6935 60.1118ZM104.52 53.6562C105.85 52.6037 107.188 51.5673 108.528 50.5497L107.924 49.7532C106.578 50.7748 105.235 51.8153 103.899 52.872L104.52 53.6562ZM112.601 47.5232C113.983 46.5185 115.363 45.5368 116.737 44.5812L116.167 43.7601C114.786 44.7198 113.4 45.7056 112.013 46.7145L112.601 47.5232ZM120.937 41.73C122.373 40.7794 123.796 39.8616 125.203 38.9801L124.672 38.1328C123.258 39.0189 121.827 39.9413 120.385 40.8962L120.937 41.73ZM129.535 36.3478C131.031 35.4686 132.499 34.6376 133.932 33.8596L133.455 32.9808C132.011 33.7646 130.533 34.6012 129.028 35.4857L129.535 36.3478ZM138.443 31.5316C139.212 31.1565 139.967 30.8004 140.707 30.4641L140.293 29.5537C139.544 29.894 138.781 30.254 138.004 30.6327L138.443 31.5316Z" fill="black"/>
</svg>
