<svg width="114" height="113" viewBox="0 0 114 113" fill="none" xmlns="http://www.w3.org/2000/svg">
<path d="M92.5 15.7213L92.9079 15.4321L92.5 15.7213ZM51 88L51.4582 87.7999L51.4582 87.7999L51 88ZM113.869 103.559C114.055 103.355 114.041 103.039 113.837 102.852L110.514 99.8182C110.31 99.632 109.994 99.6464 109.808 99.8503C109.621 100.054 109.636 100.37 109.84 100.557L112.794 103.254L110.097 106.208C109.91 106.412 109.925 106.728 110.129 106.914C110.333 107.1 110.649 107.086 110.835 106.882L113.869 103.559ZM1.32683 77.5999C1.94876 77.0627 2.56905 76.5155 3.18633 75.9587L2.5165 75.2162C1.90471 75.7681 1.28981 76.3105 0.673166 76.8431L1.32683 77.5999ZM6.79574 72.5498C7.9675 71.3895 9.11732 70.1941 10.2347 68.9657L9.49499 68.2928C8.39003 69.5075 7.25231 70.6904 6.09211 71.8393L6.79574 72.5498ZM13.4712 65.1937C14.5151 63.8996 15.5162 62.5743 16.4639 61.2197L15.6445 60.6465C14.7107 61.9811 13.7235 63.2882 12.6929 64.5658L13.4712 65.1937ZM19.1588 57.032C20.0057 55.5904 20.7859 54.1202 21.4879 52.6236L20.5826 52.1989C19.8945 53.6657 19.1289 55.1086 18.2966 56.5255L19.1588 57.032ZM23.3684 47.999C23.912 46.4179 24.3621 44.8114 24.7065 43.182L23.7281 42.9752C23.3927 44.5622 22.9538 46.1292 22.4227 47.6738L23.3684 47.999ZM25.4097 38.2265C25.4694 37.3963 25.5 36.5611 25.5 35.7213H24.5C24.5 36.5368 24.4703 37.348 24.4123 38.1548L25.4097 38.2265ZM25.5 35.7213C25.5 34.9493 25.5664 34.1516 25.6965 33.3331L24.7088 33.1762C24.5713 34.0418 24.5 34.8921 24.5 35.7213H25.5ZM27.0294 28.6699C27.6096 27.2285 28.3456 25.7615 29.2211 24.2929L28.3622 23.7809C27.4632 25.2888 26.7033 26.802 26.1017 28.2964L27.0294 28.6699ZM31.9924 20.2375C32.9708 18.9696 34.0431 17.7192 35.1976 16.5025L34.4722 15.8142C33.2951 17.0546 32.2006 18.3308 31.2007 19.6265L31.9924 20.2375ZM38.755 13.0927C39.9821 12.0217 41.2717 10.995 42.6138 10.0262L42.0285 9.21535C40.6611 10.2024 39.3474 11.2483 38.0974 12.3393L38.755 13.0927ZM46.7379 7.33573C48.1556 6.50525 49.6145 5.74438 51.1048 5.06591L50.6905 4.15578C49.1676 4.84906 47.6784 5.62587 46.2325 6.47288L46.7379 7.33573ZM55.6844 3.28295C57.2497 2.77616 58.837 2.36742 60.4366 2.06979L60.2536 1.08667C58.6093 1.39264 56.9801 1.81232 55.3763 2.33156L55.6844 3.28295ZM65.3027 1.52174C66.9304 1.46097 68.5603 1.52656 70.1827 1.73186L70.3083 0.739776C68.6293 0.527317 66.9448 0.459732 65.2654 0.522433L65.3027 1.52174ZM74.9519 2.75985C76.4769 3.23115 77.9874 3.84201 79.4749 4.60461L79.9311 3.71474C78.3917 2.92553 76.8273 2.29279 75.2471 1.80443L74.9519 2.75985ZM83.6137 7.17641C84.8832 8.11286 86.1293 9.17742 87.3458 10.3788L88.0485 9.66736C86.7992 8.43346 85.5167 7.33753 84.2072 6.37165L83.6137 7.17641ZM90.5994 14.0193C91.1038 14.6552 91.6016 15.3187 92.0921 16.0105L92.9079 15.4321C92.4072 14.726 91.8987 14.0482 91.3829 13.3979L90.5994 14.0193ZM92.0921 16.0105C92.5762 16.6932 92.9962 17.3572 93.3559 18.0035L94.2297 17.5172C93.8507 16.8363 93.411 16.1416 92.9079 15.4321L92.0921 16.0105ZM94.9442 22.2876C95.2144 23.8663 95.0941 25.3428 94.6508 26.7474L95.6045 27.0484C96.0951 25.4939 96.2273 23.8565 95.9298 22.1188L94.9442 22.2876ZM92.4509 30.7317C91.5534 31.8679 90.4514 32.9725 89.1835 34.0603L89.8346 34.8193C91.1374 33.7016 92.2881 32.5511 93.2356 31.3516L92.4509 30.7317ZM85.4428 36.9273C84.1978 37.7969 82.8716 38.6606 81.4874 39.5272L82.0181 40.3748C83.4115 39.5024 84.7526 38.6292 86.0155 37.7471L85.4428 36.9273ZM77.4169 42.0056C76.0819 42.8032 74.6989 43.621 73.3267 44.4417L73.84 45.3C75.2227 44.473 76.5788 43.6711 77.9297 42.8641L77.4169 42.0056ZM69.2463 46.9258C67.8927 47.7701 66.5475 48.6349 65.229 49.5263L65.7891 50.3548C67.095 49.4719 68.4294 48.6138 69.7755 47.7743L69.2463 46.9258ZM61.331 52.3172C60.0434 53.3001 58.8025 54.3188 57.6287 55.3799L58.2993 56.1217C59.4495 55.082 60.6685 54.081 61.9378 53.112L61.331 52.3172ZM54.2346 58.8039C53.158 60.0308 52.1792 61.3146 51.323 62.6637L52.1672 63.1996C52.9926 61.8992 53.9395 60.6564 54.9863 59.4635L54.2346 58.8039ZM49.1187 66.9859C48.5386 68.4722 48.1062 70.0299 47.8454 71.6667L48.833 71.824C49.0821 70.2602 49.4952 68.7715 50.0502 67.3496L49.1187 66.9859ZM47.5864 76.528C47.6593 78.0593 47.8737 79.651 48.2434 81.3075L49.2194 81.0897C48.8615 79.486 48.6553 77.9514 48.5853 76.4805L47.5864 76.528ZM49.6191 85.9164C49.8966 86.6653 50.2038 87.4264 50.5418 88.2001L51.4582 87.7999C51.1275 87.0428 50.8274 86.2993 50.5568 85.5689L49.6191 85.9164ZM50.5418 88.2001C50.9132 89.0504 51.292 89.8732 51.678 90.6694L52.5778 90.2331C52.1978 89.4492 51.8244 88.6384 51.4582 87.7999L50.5418 88.2001ZM54.2146 95.3622C55.1961 96.9886 56.2132 98.4743 57.2613 99.8291L58.0522 99.2173C57.0291 97.8946 56.0335 96.4409 55.0708 94.8456L54.2146 95.3622ZM60.8344 103.846C62.1891 105.161 63.5812 106.297 65.0014 107.271L65.5669 106.446C64.1946 105.505 62.8462 104.406 61.5309 103.129L60.8344 103.846ZM69.7324 109.9C71.4315 110.642 73.1521 111.193 74.879 111.581L75.0984 110.606C73.4305 110.231 71.7708 109.699 70.1326 108.984L69.7324 109.9ZM80.2359 112.298C82.0491 112.387 83.8517 112.33 85.6263 112.161L85.5315 111.165C83.7991 111.33 82.0448 111.386 80.2848 111.299L80.2359 112.298ZM90.9403 111.334C92.7277 110.954 94.4668 110.489 96.1378 109.979L95.8455 109.022C94.1975 109.526 92.487 109.983 90.7326 110.355L90.9403 111.334ZM101.204 108.244C102.996 107.572 104.665 106.892 106.175 106.271L105.795 105.347C104.287 105.967 102.63 106.641 100.853 107.308L101.204 108.244ZM111.099 104.322C112.153 103.955 112.96 103.747 113.523 103.721L113.477 102.722C112.758 102.755 111.833 103.008 110.77 103.377L111.099 104.322Z" fill="black"/>
</svg>
