<svg width="140" height="110" viewBox="0 0 140 110" fill="none" xmlns="http://www.w3.org/2000/svg">
<path d="M63.5 4.1044L63.1896 4.49642L63.5 4.1044ZM139.5 75.602C139.499 75.3258 139.274 75.1031 138.997 75.1045L134.498 75.1271C134.221 75.1285 133.999 75.3535 134 75.6296C134.001 75.9057 134.226 76.1285 134.503 76.1271L138.503 76.107L138.523 80.1069C138.524 80.3831 138.749 80.6058 139.025 80.6044C139.301 80.603 139.524 80.378 139.523 80.1019L139.5 75.602ZM1.44854 46.8254C1.81478 46.0818 2.20747 45.325 2.62513 44.5572L1.74668 44.0794C1.32297 44.8583 0.924025 45.6271 0.551455 46.3836L1.44854 46.8254ZM5.22556 40.1404C6.11305 38.7349 7.06828 37.309 8.083 35.8747L7.26664 35.2971C6.2424 36.7449 5.27738 38.1853 4.38001 39.6065L5.22556 40.1404ZM11.1437 31.7557C12.1828 30.4213 13.266 29.0899 14.3866 27.7709L13.6246 27.1234C12.4948 28.4531 11.4026 29.7956 10.3547 31.1413L11.1437 31.7557ZM17.7961 23.9243C18.9578 22.6677 20.1489 21.4323 21.3632 20.227L20.6587 19.5173C19.434 20.7329 18.233 21.9787 17.0618 23.2455L17.7961 23.9243ZM25.0906 16.6908C26.3727 15.5301 27.6723 14.4103 28.9826 13.3411L28.3504 12.5663C27.0261 13.6469 25.7136 14.7779 24.4194 15.9495L25.0906 16.6908ZM33.048 10.2156C34.465 9.19399 35.886 8.24157 37.3028 7.36978L36.7788 6.5181C35.3394 7.40376 33.8982 8.36987 32.4631 9.40447L33.048 10.2156ZM41.7702 4.88982C43.359 4.10762 44.9294 3.44586 46.4699 2.92044L46.1471 1.97398C44.5608 2.51502 42.9506 3.19405 41.3285 3.99266L41.7702 4.88982ZM51.3851 1.70889C53.1217 1.46016 54.7937 1.42916 56.3834 1.63955L56.5146 0.648195C54.8218 0.424161 53.0571 0.459217 51.2433 0.718995L51.3851 1.70889ZM61.1061 3.13073C61.8255 3.51316 62.5209 3.96696 63.1896 4.49642L63.8104 3.71238C63.0948 3.14592 62.3489 2.65888 61.5755 2.24774L61.1061 3.13073ZM63.1896 4.49642C63.9005 5.05915 64.5562 5.62715 65.1595 6.20029L65.8482 5.47524C65.2218 4.88019 64.5432 4.29259 63.8104 3.71238L63.1896 4.49642ZM68.4765 10.1566C69.4515 11.6791 70.1285 13.2372 70.5512 14.8319L71.5178 14.5757C71.0681 12.879 70.3485 11.2255 69.3186 9.61732L68.4765 10.1566ZM71.0935 19.9239C71.0345 21.5846 70.7682 23.2892 70.3306 25.0388L71.3007 25.2814C71.752 23.4769 72.0309 21.7021 72.0928 19.9594L71.0935 19.9239ZM68.7067 30.0056C68.0871 31.5761 67.3678 33.1763 66.5733 34.8065L67.4722 35.2446C68.2752 33.5969 69.0057 31.9726 69.6369 30.3726L68.7067 30.0056ZM64.1526 39.4859C63.3313 41.0012 62.4692 42.5388 61.5842 44.0993L62.454 44.5926C63.3404 43.0298 64.2061 41.4859 65.0318 39.9624L64.1526 39.4859ZM58.9654 48.6968C58.1005 50.2182 57.2314 51.7598 56.3742 53.3205L57.2507 53.8019C58.1045 52.2474 58.9709 50.7106 59.8347 49.191L58.9654 48.6968ZM53.8822 58.0061C53.0767 59.5803 52.2978 61.1734 51.561 62.785L52.4704 63.2008C53.2001 61.6048 53.9724 60.0251 54.7724 58.4616L53.8822 58.0061ZM49.4878 67.6856C48.846 69.3461 48.2623 71.0255 47.7526 72.7234L48.7103 73.011C49.2119 71.3404 49.787 69.6854 50.4206 68.0461L49.4878 67.6856ZM46.4558 77.8994C46.2821 78.7729 46.1311 79.651 46.005 80.5338L46.995 80.6752C47.1184 79.8111 47.2662 78.9508 47.4366 78.0945L46.4558 77.8994ZM46.005 80.5338C45.8823 81.3929 45.7975 82.2396 45.7499 83.0728L46.7482 83.1299C46.7942 82.3256 46.8761 81.5071 46.995 80.6752L46.005 80.5338ZM45.9365 88.1641C46.1726 89.8961 46.586 91.5494 47.1662 93.1133L48.1038 92.7654C47.5497 91.2721 47.1538 89.6903 46.9273 88.029L45.9365 88.1641ZM49.4863 97.6601C50.4278 99.0691 51.5334 100.369 52.7903 101.549L53.4747 100.819C52.2719 99.6906 51.2159 98.4487 50.3178 97.1046L49.4863 97.6601ZM56.8508 104.625C58.2602 105.483 59.7855 106.232 61.4167 106.862L61.777 105.929C60.1987 105.32 58.7272 104.597 57.3712 103.771L56.8508 104.625ZM66.2872 108.319C67.8798 108.67 69.5465 108.924 71.2807 109.078L71.3687 108.081C69.6752 107.932 68.0511 107.683 66.5022 107.342L66.2872 108.319ZM76.341 109.237C77.9697 109.2 79.646 109.082 81.3658 108.878L81.248 107.885C79.5587 108.085 77.9142 108.201 76.3185 108.237L76.341 109.237ZM86.3539 108.068C87.9554 107.739 89.5883 107.34 91.2496 106.868L90.9762 105.906C89.3381 106.372 87.7294 106.765 86.153 107.088L86.3539 108.068ZM96.0329 105.331C97.5726 104.78 99.133 104.167 100.712 103.492L100.319 102.572C98.7578 103.24 97.2162 103.845 95.6959 104.389L96.0329 105.331ZM105.278 101.386C106.747 100.66 108.229 99.8791 109.724 99.0434L109.236 98.1705C107.756 98.9982 106.288 99.7708 104.834 100.49L105.278 101.386ZM114.051 96.4889C115.445 95.6222 116.848 94.7076 118.258 93.744L117.694 92.9183C116.295 93.874 114.904 94.7807 113.523 95.6397L114.051 96.4889ZM122.349 90.8262C123.669 89.8442 124.995 88.8191 126.326 87.7499L125.699 86.9704C124.378 88.0318 123.062 89.0493 121.752 90.0237L122.349 90.8262ZM130.195 84.5271C131.436 83.4557 132.681 82.3457 133.928 81.1963L133.251 80.461C132.011 81.6031 130.775 82.7058 129.541 83.77L130.195 84.5271ZM137.555 77.7483C138.154 77.1602 138.755 76.5629 139.355 75.9562L138.645 75.2527C138.048 75.8558 137.451 76.4496 136.855 77.0342L137.555 77.7483Z" fill="black"/>
</svg>
