<svg width="149" height="117" viewBox="0 0 149 117" fill="none" xmlns="http://www.w3.org/2000/svg">
<path d="M92 45.1724L91.5796 44.9017L92 45.1724ZM50.5 11.1725L50.8246 11.5528L50.8246 11.5528L50.5 11.1725ZM71.5 115.672L71.5843 115.18L71.5 115.672ZM148.419 84.4452C148.57 84.2137 148.504 83.904 148.273 83.7534L144.501 81.2988C144.27 81.1482 143.96 81.2137 143.809 81.4451C143.659 81.6766 143.724 81.9863 143.956 82.1369L147.308 84.3188L145.126 87.6713C144.976 87.9028 145.041 88.2125 145.273 88.3631C145.504 88.5137 145.814 88.4482 145.965 88.2168L148.419 84.4452ZM0.862639 72.1119C1.59339 72.3207 2.40374 72.5044 3.28529 72.6636L3.4629 71.6795C2.60751 71.5251 1.83031 71.3484 1.13736 71.1504L0.862639 72.1119ZM8.22912 73.2539C9.76547 73.3635 11.422 73.4262 13.179 73.4412L13.1875 72.4412C11.4486 72.4264 9.81312 72.3644 8.30029 72.2565L8.22912 73.2539ZM18.125 73.3667C19.7201 73.308 21.3729 73.216 23.0725 73.0904L22.9988 72.0931C21.3109 72.2179 19.6704 72.3091 18.0883 72.3674L18.125 73.3667ZM27.9792 72.6465C29.5888 72.475 31.2283 72.2755 32.8894 72.0477L32.7535 71.057C31.1023 71.2835 29.4728 71.4817 27.8733 71.6521L27.9792 72.6465ZM37.765 71.3063C39.3746 71.0375 40.9966 70.7428 42.624 70.422L42.4305 69.4409C40.8129 69.7598 39.2004 70.0527 37.6004 70.3199L37.765 71.3063ZM47.455 69.3941C49.0575 69.0276 50.6585 68.6355 52.2513 68.2175L51.9975 67.2503C50.4153 67.6655 48.8246 68.0551 47.2321 68.4192L47.455 69.3941ZM57.0069 66.8828C58.5934 66.4074 60.1648 65.9052 61.7142 65.3758L61.3909 64.4295C59.8541 64.9546 58.2948 65.453 56.7199 65.9248L57.0069 66.8828ZM66.3597 63.6782C67.9123 63.0717 69.434 62.4355 70.9169 61.7692L70.507 60.857C69.0403 61.5161 67.534 62.1459 65.9959 62.7468L66.3597 63.6782ZM75.3808 59.607C76.8712 58.8279 78.3085 58.0138 79.6833 57.164L79.1575 56.3134C77.8049 57.1495 76.3885 57.9518 74.9175 58.7207L75.3808 59.607ZM83.7986 54.3667C85.1605 53.3445 86.4344 52.2774 87.6071 51.1647L86.9188 50.4393C85.7767 51.5229 84.5326 52.5654 83.1982 53.567L83.7986 54.3667ZM90.9696 47.4834C91.4887 46.8176 91.9731 46.1376 92.4204 45.4432L91.5796 44.9017C91.1494 45.5696 90.6826 46.2252 90.181 46.8684L90.9696 47.4834ZM92.4204 45.4432C92.8621 44.7574 93.2782 44.0704 93.6693 43.383L92.8001 42.8885C92.4182 43.5598 92.0116 44.2311 91.5796 44.9017L92.4204 45.4432ZM95.7924 39.087C96.4316 37.5694 96.9537 36.0574 97.3645 34.5587L96.4 34.2944C96.0011 35.75 95.4934 37.2208 94.8708 38.6988L95.7924 39.087ZM98.3031 29.8406C98.5053 28.2076 98.576 26.6024 98.5236 25.036L97.5242 25.0694C97.5748 26.5829 97.5065 28.1359 97.3107 29.7177L98.3031 29.8406ZM97.9631 20.2545C97.6348 18.65 97.1705 17.106 96.5813 15.6371L95.6532 16.0094C96.2198 17.422 96.6669 18.9085 96.9834 20.455L97.9631 20.2545ZM94.371 11.3483C93.4917 9.98217 92.4864 8.71609 91.3679 7.56727L90.6514 8.26486C91.7226 9.36511 92.6864 10.5787 93.5302 11.8896L94.371 11.3483ZM87.6586 4.47169C86.3293 3.57924 84.901 2.82095 83.3865 2.21365L83.0143 3.14181C84.4633 3.72286 85.8297 4.44824 87.1012 5.30193L87.6586 4.47169ZM78.7428 0.887007C77.1986 0.611249 75.5928 0.478901 73.9356 0.502733L73.95 1.50263C75.5445 1.4797 77.0866 1.60707 78.567 1.87143L78.7428 0.887007ZM69.1461 0.992475C67.6242 1.27869 66.0713 1.69283 64.494 2.2431L64.8234 3.18728C66.3552 2.65288 67.8599 2.25191 69.331 1.97525L69.1461 0.992475ZM60.0904 4.11097C58.7117 4.79972 57.32 5.59302 55.9192 6.49598L56.461 7.33648C57.8324 6.45244 59.1926 5.67735 60.5373 5.00554L60.0904 4.11097ZM52.0441 9.26229C51.4221 9.74998 50.7991 10.2598 50.1754 10.7922L50.8246 11.5528C51.438 11.0292 52.0503 10.5282 52.6611 10.0492L52.0441 9.26229ZM50.1754 10.7922C49.5667 11.3118 48.9695 11.8824 48.3847 12.5004L49.1111 13.1877C49.6735 12.5933 50.2452 12.0475 50.8246 11.5528L50.1754 10.7922ZM45.3131 16.3355C44.4235 17.6281 43.5714 19.0354 42.7618 20.5424L43.6427 21.0157C44.4368 19.5374 45.2701 18.1617 46.1369 16.9025L45.3131 16.3355ZM40.6381 24.9456C40.0057 26.4046 39.4086 27.9296 38.85 29.5109L39.7929 29.844C40.3442 28.2832 40.933 26.7799 41.5556 25.3433L40.6381 24.9456ZM37.3648 34.1631C36.9233 35.7006 36.5168 37.278 36.1477 38.888L37.1224 39.1115C37.4875 37.5186 37.8896 35.9588 38.326 34.4391L37.3648 34.1631ZM35.1794 43.6738C34.8996 45.2622 34.6562 46.8741 34.4515 48.503L35.4437 48.6277C35.6464 47.0151 35.8873 45.4195 36.1642 43.8473L35.1794 43.6738ZM33.9613 53.3617C33.8381 54.9782 33.7539 56.6054 33.7108 58.2372L34.7105 58.2636C34.7531 56.6486 34.8364 55.038 34.9584 53.4377L33.9613 53.3617ZM33.7068 63.1187C33.7476 64.7474 33.8314 66.3751 33.9604 67.9961L34.9572 67.9168C34.8298 66.3144 34.7469 64.7047 34.7064 63.0936L33.7068 63.1187ZM34.4875 72.8538C34.7119 74.4747 34.9847 76.0829 35.3083 77.6725L36.2882 77.473C35.969 75.9049 35.6997 74.3175 35.478 72.7167L34.4875 72.8538ZM36.4468 82.4279C36.8851 84.0094 37.379 85.5652 37.9309 87.0888L38.8711 86.7482C38.3284 85.25 37.8423 83.7187 37.4105 82.1608L36.4468 82.4279ZM39.7917 91.6186C40.483 93.1114 41.2382 94.5633 42.0603 95.9672L42.9232 95.4619C42.1181 94.087 41.3776 92.6636 40.6992 91.1984L39.7917 91.6186ZM44.7577 100.066C45.7312 101.384 46.7761 102.645 47.8953 103.842L48.6257 103.159C47.5338 101.991 46.5135 100.76 45.5622 99.4717L44.7577 100.066ZM51.4653 107.221C52.7109 108.261 54.0304 109.233 55.426 110.127L55.9657 109.285C54.6059 108.414 53.3203 107.467 52.1064 106.453L51.4653 107.221ZM59.7139 112.513C61.1595 113.204 62.6733 113.822 64.2572 114.362L64.5796 113.415C63.0324 112.888 61.555 112.285 60.1453 111.611L59.7139 112.513ZM68.9776 115.685C69.7748 115.863 70.5875 116.024 71.4157 116.165L71.5843 115.18C70.7725 115.041 69.9764 114.884 69.1959 114.709L68.9776 115.685ZM71.4157 116.165C72.217 116.302 73.008 116.421 73.789 116.521L73.9162 115.529C73.1493 115.431 72.3721 115.314 71.5843 115.18L71.4157 116.165ZM78.5355 116.917C80.1714 116.979 81.7616 116.959 83.31 116.865L83.2496 115.867C81.734 115.959 80.1765 115.978 78.573 115.918L78.5355 116.917ZM88.0547 116.334C89.6525 116.072 91.2045 115.731 92.7155 115.322L92.4541 114.357C90.9747 114.757 89.4559 115.091 87.8927 115.347L88.0547 116.334ZM97.2568 113.852C98.7559 113.287 100.215 112.659 101.641 111.978L101.21 111.076C99.808 111.745 98.3747 112.362 96.9042 112.916L97.2568 113.852ZM105.858 109.771C107.24 108.987 108.592 108.161 109.921 107.306L109.38 106.465C108.064 107.312 106.727 108.128 105.364 108.902L105.858 109.771ZM113.857 104.655C115.154 103.746 116.434 102.82 117.703 101.888L117.111 101.082C115.846 102.011 114.572 102.933 113.283 103.835L113.857 104.655ZM121.502 99.0702C122.772 98.1254 124.036 97.1875 125.301 96.2678L124.714 95.4588C123.443 96.3821 122.175 97.323 120.905 98.2679L121.502 99.0702ZM129.149 93.5494C130.454 92.6595 131.766 91.8026 133.093 90.9915L132.571 90.1383C131.228 90.9598 129.901 91.826 128.586 92.7232L129.149 93.5494ZM137.174 88.6825C138.565 87.9628 139.978 87.3049 141.42 86.7224L141.046 85.7952C139.571 86.3907 138.13 87.062 136.714 87.7943L137.174 88.6825ZM145.838 85.2156C146.584 85.0086 147.339 84.8234 148.103 84.6616L147.897 83.6832C147.111 83.8495 146.336 84.0396 145.57 84.252L145.838 85.2156Z" fill="black"/>
</svg>
