<svg width="159" height="63" viewBox="0 0 159 63" fill="none" xmlns="http://www.w3.org/2000/svg">
<rect width="159" height="63" fill="black"/>
<path d="M50.5742 14.883V43.583H40.2422V49.733H36.3062V43.583H25.9742V14.883H30.0742V39.647H46.4742V14.883H50.5742ZM62.0654 18.737V27.306H76.0054V31.16H62.0654V39.729H77.2354V43.583H57.9654V14.883H77.2354V18.737H62.0654ZM102.588 43.583L93.6088 31.857L84.6708 43.583H79.7098L91.0668 28.987L80.2018 14.883H85.2448L93.6908 25.871L102.055 14.883H107.057L96.2328 28.782L107.59 43.583H102.588ZM131.296 43.583L122.317 31.857L113.379 43.583H108.418L119.775 28.987L108.91 14.883H113.953L122.399 25.871L130.763 14.883H135.765L124.941 28.782L136.298 43.583H131.296Z" fill="white"/>
</svg>
