<svg width="130" height="130" viewBox="0 0 130 130" fill="none" xmlns="http://www.w3.org/2000/svg">
<path fill-rule="evenodd" clip-rule="evenodd" d="M130 0H0V130H130V0ZM40.8569 26.0013H92.8569C97.7805 26.0072 102.501 27.9657 105.982 31.4473C109.464 34.9288 111.422 39.6491 111.428 44.5727V89.1442C111.422 94.0678 109.464 98.7881 105.982 102.27C102.501 105.751 97.7805 107.71 92.8569 107.716H40.8569C35.9332 107.71 31.2129 105.751 27.7314 102.27C24.2498 98.7881 22.2913 94.0678 22.2854 89.1442V44.5727C22.2913 39.6491 24.2498 34.9288 27.7314 31.4473C31.2129 27.9657 35.9332 26.0072 40.8569 26.0013ZM92.8569 33.4299H40.8569C38.6328 33.4342 36.4609 34.1041 34.6207 35.3531C32.7806 36.6022 31.3563 38.3734 30.5311 40.4387L58.9751 68.8864C61.0684 70.9713 63.9025 72.1419 66.8569 72.1419C69.8113 72.1419 72.6453 70.9713 74.7386 68.8864L103.183 40.4387C102.357 38.3734 100.933 36.6022 99.093 35.3531C97.2528 34.1041 95.0809 33.4342 92.8569 33.4299ZM32.9777 97.0233C35.0674 99.113 37.9016 100.287 40.8569 100.287H92.8569C95.8121 100.287 98.6464 99.113 100.736 97.0233C102.826 94.9337 104 92.0994 104 89.1442V50.1442L79.9906 74.1384C76.5042 77.616 71.781 79.5689 66.8569 79.5689C61.9327 79.5689 57.2095 77.616 53.7231 74.1384L29.714 50.1442V89.1442C29.714 92.0994 30.888 94.9337 32.9777 97.0233Z" fill="black"/>
</svg>
