<svg width="131" height="130" viewBox="0 0 131 130" fill="none" xmlns="http://www.w3.org/2000/svg">
<g clip-path="url(#clip0_172_4)">
<path d="M90.7106 42.762L43.0267 72.3362C42.1871 72.8568 41.8052 73.8792 42.0981 74.8228L48.4944 95.4334C48.6288 95.8664 49.2598 95.8068 49.3106 95.3561L50.8652 81.536C50.9251 81.002 51.1813 80.5094 51.5838 80.1534L91.9635 44.4459C92.9302 43.5913 91.8074 42.0817 90.7106 42.762Z" fill="black"/>
<path d="M0.5 0V130H130.5V0H0.5ZM108.864 33.7794L94.0215 104.74C93.3249 108.07 89.4194 109.565 86.677 107.552L64.2676 91.1028L52.8462 102.764C50.8417 104.811 47.379 103.983 46.5178 101.25L38.2736 75.0905L16.1831 68.5673C13.2849 67.7115 13.114 63.6709 15.9298 62.5735L102.862 28.6968C106.171 27.4074 109.591 30.3033 108.864 33.7794Z" fill="black"/>
</g>
<defs>
<clipPath id="clip0_172_4">
<rect width="130" height="130" fill="white" transform="translate(0.5)"/>
</clipPath>
</defs>
</svg>
