<svg width="126" height="130" viewBox="0 0 126 130" fill="none" xmlns="http://www.w3.org/2000/svg">
<g clip-path="url(#clip0_172_8)">
<path d="M81.4412 30.0618C68.9916 27.6057 56.366 27.6057 43.9137 30.0618C38.4673 31.3197 31.6154 38.1288 30.2758 43.6057C28.0477 54.203 28.0477 64.9457 30.2758 75.543C31.6154 81.0199 38.4673 87.829 43.9137 89.0869C43.915 89.0872 43.9164 89.0875 43.9178 89.0878C44.1604 89.1371 44.3373 89.3551 44.3373 89.6115V105.136C44.3373 105.912 45.2505 106.294 45.7704 105.732L52.8809 98.1641C52.8809 98.1641 58.547 92.1321 59.5659 91.0475C59.6654 90.9414 59.803 90.8841 59.9455 90.888C67.1245 91.0943 74.3112 90.493 81.4412 89.0872C86.8876 87.8292 93.7423 81.0202 95.0791 75.5433C97.3099 64.946 97.3099 54.2033 95.0791 43.606C93.742 38.1288 86.8903 31.3197 81.4412 30.0618ZM81.631 76.3334C80.5418 78.7319 78.9568 80.7272 76.6704 82.0009C76.0254 82.3603 75.2544 82.4764 74.5263 82.7089C73.689 82.4453 72.891 82.2682 72.15 81.9493C64.4712 78.6454 57.4041 74.3831 51.8062 67.8493C48.6228 64.1339 46.131 59.9392 44.0251 55.5C43.0263 53.3949 42.1846 51.2072 41.3266 49.0339C40.5441 47.0519 41.6966 45.0043 42.9099 43.511C44.0484 42.1096 45.5135 41.037 47.1001 40.2466C48.3384 39.6295 49.56 39.9853 50.4644 41.0738C52.4196 43.4272 54.2155 45.9009 55.6698 48.6288C56.564 50.3067 56.3187 52.3577 54.698 53.4995C54.3041 53.7771 53.9451 54.1029 53.5782 54.4164C53.2564 54.6911 52.9535 54.9686 52.7329 55.3406C52.3296 56.0209 52.3104 56.8239 52.5701 57.5639C54.5687 63.2599 57.9375 67.689 63.4658 70.0746C64.3507 70.4563 65.2389 70.9007 66.258 70.7775C67.9648 70.5707 68.5174 68.6292 69.7134 67.6149C70.8825 66.6236 72.3764 66.6105 73.6356 67.4369C74.8952 68.2635 76.1162 69.151 77.3298 70.0478C78.5211 70.9281 79.7072 71.7893 80.8061 72.7928C81.8621 73.7576 82.226 75.0235 81.631 76.3334ZM71.7165 57.7721C71.2398 57.7809 71.4271 57.7713 71.6084 57.7658C70.8401 57.7379 70.4223 57.2689 70.3397 56.5064C70.2795 55.9493 70.2319 55.3848 70.1037 54.8428C69.8512 53.7754 69.3041 52.7861 68.4385 52.132C68.0297 51.8231 67.5665 51.5977 67.0813 51.4528C66.4649 51.2683 65.8248 51.319 65.2097 51.1627C64.5419 50.9933 64.1724 50.4322 64.2772 49.7824C64.3727 49.191 64.9275 48.7295 65.5505 48.7763C69.4447 49.0678 72.2278 51.1556 72.625 55.91C72.6531 56.2454 72.6861 56.5997 72.6143 56.9206C72.4977 57.4423 72.1381 57.7139 71.7748 57.7633C71.8045 57.7638 71.7987 57.7664 71.7165 57.7721ZM69.295 46.8984C68.1001 46.2917 66.8079 45.9146 65.498 45.6898C64.9256 45.5917 64.3471 45.5321 63.7719 45.449C63.0749 45.3486 62.703 44.8879 62.7358 44.1757C62.7666 43.5082 63.2369 43.0281 63.9384 43.0692C66.2434 43.2049 68.4698 43.7215 70.5191 44.8469C74.6864 47.1355 77.0668 50.748 77.7616 55.5716C77.7933 55.7901 77.8436 56.0067 77.8596 56.226C77.8992 56.7674 77.9237 57.3097 77.9638 58.0237C77.9473 58.1538 77.9385 58.4596 77.8653 58.7477C77.5988 59.7934 76.07 59.9244 75.7179 58.8689C75.6136 58.5557 75.598 58.1994 75.5974 57.8622C75.5938 55.6561 75.1314 53.4522 74.0587 51.5327C72.9559 49.5604 71.2709 47.902 69.295 46.8984ZM82.1715 61.8062C81.3664 61.8162 81.0041 61.1176 80.9519 60.3688C80.8485 58.8866 80.7769 57.3978 80.5797 55.9279C79.54 48.1687 73.5737 41.7493 66.1265 40.3718C65.0059 40.1644 63.8586 40.1099 62.7237 39.9864C62.006 39.9082 61.0661 39.8632 60.9071 38.9381C60.7737 38.1625 61.405 37.5449 62.1171 37.5052C62.3108 37.4944 62.5055 37.5035 62.7 37.5044C72.3453 37.7848 63.2886 37.5261 62.7259 37.5058C72.7581 37.809 80.9951 44.7179 82.7616 55.0065C83.0628 56.7612 83.17 58.5551 83.304 60.336C83.3601 61.0848 82.9511 61.7965 82.1715 61.8062Z" fill="black"/>
<path d="M0 0V130H125.357V0H0ZM102.324 77.2419L102.3 77.3446C100.297 85.7397 91.2693 94.7481 82.9787 96.6222L82.8852 96.6422C76.1818 97.9686 69.4289 98.6304 62.6787 98.6304C60.6919 98.6304 58.7051 98.5662 56.7194 98.451L47.5637 108.321C45.2971 110.768 41.3114 109.102 41.3114 105.71V96.3392C33.3303 93.9756 24.9748 85.3814 23.0551 77.3443L23.0331 77.2416C20.5575 65.5176 20.5575 53.6281 23.0331 41.9041L23.0551 41.8014C25.0604 33.4063 34.0881 24.3979 42.3759 22.5238L42.4722 22.5038C55.879 19.851 69.4756 19.851 82.8852 22.5038L82.9787 22.5238C91.2693 24.3979 100.297 33.4063 102.3 41.8014L102.324 41.9041C104.8 53.6284 104.8 65.5179 102.324 77.2419Z" fill="black"/>
</g>
<defs>
<clipPath id="clip0_172_8">
<rect width="125.357" height="130" fill="white"/>
</clipPath>
</defs>
</svg>
